<svg width="580" height="145" viewBox="0 0 580 145" fill="none" xmlns="http://www.w3.org/2000/svg">
<path d="M274.446 79.9986C274.446 93.2215 270.235 109.019 250.157 109.019H241.771C225.938 109.019 217.239 98.6847 217.239 79.8942V35.9453H201.685V79.8594C201.685 107.245 216.995 124.261 241.632 124.261H250.018C274.654 124.261 289.965 107.245 289.965 79.8594V35.9453H274.411V79.9986H274.446Z" fill="#5D5D5D"/>
<path d="M99.7637 75.9273V84.3134C99.7637 108.95 116.78 124.261 144.165 124.261H188.079V108.706H144.061C130.838 108.706 115.04 104.496 115.04 84.4178V76.0317C115.04 60.199 125.374 51.4997 144.165 51.4997H188.079V35.9453H144.165C116.78 35.9453 99.7637 51.2561 99.7637 75.9273Z" fill="#5D5D5D"/>
<path d="M48.3681 35.9453H39.9472C15.3108 35.9453 0 52.9612 0 80.3466V124.261H15.5544V80.2422C15.5544 67.0192 19.7648 51.2213 39.8428 51.2213H48.2637C64.0965 51.2213 72.7958 61.5561 72.7958 80.3466V124.261H88.3501V80.3466C88.3153 52.9612 73.0046 35.9453 48.3681 35.9453Z" fill="#5D5D5D"/>
<path d="M15.7286 35.9455V0H0.313477V54.2837C3.89759 45.7235 9.49994 39.4948 15.7286 35.9455Z" fill="#5D5D5D"/>
<path d="M469.38 63.8876H472.581C472.998 63.8876 473.312 63.818 473.486 63.6788C473.694 63.5396 473.834 63.296 473.973 63.0177L482.672 42.5221H479.227C478.984 42.5221 478.74 42.5917 478.496 42.7309C478.253 42.8701 478.114 43.0789 478.044 43.2876L475.191 50.9778C474.947 51.6042 474.738 52.1957 474.564 52.8221C474.495 52.5089 474.39 52.2305 474.321 51.9174C474.251 51.6042 474.147 51.291 474.008 51.0126L470.945 43.2876C470.876 43.0789 470.737 42.9049 470.528 42.7309C470.354 42.5917 470.075 42.4873 469.728 42.4873H465.935L472.407 57.3457L469.38 63.8876Z" fill="#5D5D5D"/>
<path d="M453.999 45.6193H455.53V54.3186C455.53 55.0146 455.635 55.6757 455.844 56.2325C456.052 56.7892 456.331 57.2764 456.713 57.6591C457.096 58.0419 457.583 58.3551 458.14 58.5639C458.697 58.7727 459.358 58.8771 460.089 58.8771C460.889 58.8771 461.655 58.7379 462.42 58.5291C463.186 58.2855 463.847 57.9375 464.438 57.4504L463.151 55.3973C463.081 55.2581 462.977 55.1537 462.907 55.119C462.838 55.0842 462.733 55.0494 462.594 55.0494C462.49 55.0494 462.42 55.0842 462.316 55.119C462.211 55.1537 462.142 55.2233 462.037 55.2581C461.933 55.3277 461.794 55.3625 461.655 55.3973C461.516 55.4321 461.342 55.4669 461.133 55.4669C460.75 55.4669 460.437 55.3277 460.228 55.0842C460.019 54.8406 459.915 54.4578 459.915 54.0054V45.5845H464.09V42.592H459.915V37.6855H457.653C457.131 37.6855 456.818 37.9291 456.713 38.3815L455.844 42.5572L453.269 43.0095V44.7146C453.269 44.993 453.338 45.2365 453.512 45.3757C453.582 45.5497 453.791 45.6193 453.999 45.6193Z" fill="#5D5D5D"/>
<path d="M445.3 39.8076C445.543 40.0511 445.822 40.2251 446.135 40.3643C446.448 40.5035 446.796 40.5731 447.144 40.5731C447.527 40.5731 447.875 40.5035 448.188 40.3643C448.501 40.2251 448.814 40.0511 449.058 39.8076C449.301 39.564 449.51 39.2856 449.649 38.9724C449.789 38.6593 449.858 38.3113 449.858 37.9633C449.858 37.6153 449.789 37.2674 449.649 36.9542C449.51 36.641 449.301 36.3626 449.058 36.1191C448.814 35.8755 448.536 35.7015 448.188 35.5623C447.875 35.4231 447.492 35.3535 447.144 35.3535C446.796 35.3535 446.448 35.4231 446.135 35.5623C445.822 35.7015 445.543 35.8755 445.3 36.1191C445.056 36.3626 444.882 36.641 444.743 36.9542C444.604 37.2674 444.534 37.6153 444.534 37.9633C444.534 38.3461 444.604 38.6593 444.743 38.9724C444.882 39.2856 445.056 39.564 445.3 39.8076Z" fill="#5D5D5D"/>
<path d="M449.371 42.5225H445.057V58.6684H449.371V42.5225Z" fill="#5D5D5D"/>
<path d="M425.083 55.6404C426.022 56.6844 427.171 57.4847 428.528 58.0762C429.885 58.6678 431.416 58.9462 433.121 58.9462C435 58.9462 436.636 58.633 437.993 58.0414C439.35 57.4499 440.498 56.5452 441.403 55.3969L439.524 53.4134C439.35 53.2394 439.141 53.135 438.863 53.135C438.723 53.135 438.584 53.1698 438.445 53.2394C438.306 53.309 438.201 53.3786 438.097 53.483C437.749 53.7962 437.436 54.0398 437.088 54.2485C436.775 54.4573 436.427 54.5965 436.044 54.7357C435.661 54.8749 435.278 54.9445 434.826 55.0141C434.374 55.0837 433.921 55.0837 433.365 55.0837C432.46 55.0837 431.625 54.9097 430.824 54.5617C430.024 54.2138 429.363 53.7266 428.771 53.0654C428.18 52.4043 427.728 51.604 427.38 50.6296C427.032 49.6901 426.858 48.5766 426.858 47.3587C426.858 46.1408 426.997 45.0621 427.345 44.1226C427.658 43.183 428.11 42.3827 428.667 41.7215C429.224 41.0604 429.92 40.5732 430.72 40.2253C431.52 39.8773 432.39 39.7033 433.33 39.7033C434.2 39.7033 434.896 39.8077 435.452 39.9817C436.009 40.1557 436.462 40.3645 436.844 40.5732C437.227 40.782 437.54 40.9908 437.784 41.1648C438.027 41.3388 438.306 41.4432 438.549 41.4432C438.793 41.4432 439.002 41.4084 439.141 41.304C439.28 41.1996 439.419 41.0952 439.489 40.956L441.055 38.7986C440.602 38.3462 440.115 37.9635 439.559 37.5807C439.002 37.1979 438.41 36.8847 437.749 36.6412C437.088 36.3976 436.392 36.1888 435.661 36.0496C434.931 35.9104 434.13 35.8408 433.295 35.8408C432.182 35.8408 431.138 35.98 430.129 36.2236C429.154 36.4672 428.249 36.8499 427.38 37.3371C426.544 37.8243 425.779 38.4158 425.118 39.1118C424.457 39.8077 423.9 40.5732 423.413 41.4432C422.925 42.3131 422.578 43.2178 422.334 44.2617C422.09 45.2709 421.951 46.3496 421.951 47.4631C421.951 49.1334 422.195 50.6992 422.717 52.1259C423.239 53.5526 424.143 54.5965 425.083 55.6404Z" fill="#5D5D5D"/>
<path d="M416.836 44.0185C416.383 43.4618 415.792 43.0442 415.13 42.7658C414.469 42.4527 413.669 42.3135 412.799 42.3135C412.277 42.3135 411.79 42.3831 411.303 42.4875C410.85 42.5919 410.433 42.731 410.05 42.9398C409.667 43.1138 409.285 43.3574 408.937 43.601C408.589 43.8446 408.241 44.1577 407.927 44.4709L407.649 43.3574C407.475 42.8702 407.127 42.5919 406.57 42.5919H403.926V58.7378H408.241V47.1503C408.728 46.6979 409.215 46.3152 409.772 46.0716C410.294 45.7932 410.885 45.6888 411.477 45.6888C412.277 45.6888 412.903 45.9324 413.321 46.4195C413.739 46.9067 413.947 47.6027 413.947 48.5074V58.7726H418.262V48.5074C418.262 47.6027 418.158 46.7675 417.914 46.0368C417.671 45.306 417.323 44.5405 416.836 44.0185Z" fill="#5D5D5D"/>
<path d="M397.628 54.2841C397.384 54.2841 397.106 54.3537 396.827 54.4929C396.549 54.632 396.271 54.806 395.923 54.98C395.609 55.154 395.227 55.2932 394.774 55.4324C394.357 55.5716 393.835 55.6412 393.243 55.6412C392.06 55.6412 391.121 55.2932 390.39 54.5973C389.659 53.9013 389.242 52.7878 389.102 51.2915H398.776C398.985 51.2915 399.124 51.2567 399.263 51.2219C399.402 51.1871 399.472 51.0827 399.576 50.9783C399.681 50.8739 399.715 50.7 399.75 50.4912C399.785 50.2824 399.785 50.004 399.785 49.6908C399.785 48.5077 399.611 47.4986 399.263 46.5591C398.915 45.6544 398.428 44.8888 397.802 44.2625C397.175 43.6361 396.41 43.149 395.54 42.8358C394.67 42.5226 393.73 42.3486 392.686 42.3486C391.469 42.3486 390.355 42.5574 389.416 42.975C388.441 43.3926 387.606 43.9841 386.945 44.68C386.249 45.4108 385.762 46.2459 385.379 47.2202C384.996 48.1946 384.822 49.2385 384.822 50.3172C384.822 51.7439 385.031 52.9966 385.449 54.0753C385.866 55.154 386.423 56.0587 387.154 56.7895C387.884 57.5202 388.72 58.077 389.694 58.4249C390.668 58.8077 391.712 58.9817 392.86 58.9817C393.417 58.9817 394.009 58.9469 394.6 58.8773C395.192 58.8077 395.818 58.6685 396.41 58.4597C397.001 58.251 397.593 57.9726 398.15 57.6246C398.706 57.2766 399.194 56.8243 399.681 56.3023L398.428 54.7364C398.254 54.3885 397.976 54.2841 397.628 54.2841ZM390.355 46.1763C390.947 45.5848 391.747 45.3064 392.791 45.3064C393.348 45.3064 393.835 45.4108 394.218 45.5848C394.6 45.7588 394.948 46.0023 395.192 46.3155C395.435 46.6287 395.644 46.9767 395.749 47.3942C395.853 47.8118 395.923 48.2294 395.923 48.6817H389.172C389.381 47.603 389.763 46.7679 390.355 46.1763Z" fill="#5D5D5D"/>
<path d="M374.453 45.6189V58.6679H378.768V45.6189H382.63V42.6263H378.629V41.6868C378.629 41.1301 378.698 40.6429 378.803 40.2601C378.907 39.8774 379.116 39.5642 379.359 39.3554C379.603 39.1466 379.881 38.9726 380.229 38.8682C380.577 38.7638 380.96 38.729 381.412 38.729C381.725 38.729 382.004 38.6942 382.282 38.5899C382.526 38.4855 382.665 38.2767 382.7 37.9635L382.804 35.8409C382.456 35.7365 382.108 35.6669 381.795 35.6321C381.482 35.5973 381.099 35.5625 380.716 35.5625C379.742 35.5625 378.872 35.7017 378.107 35.9801C377.341 36.2584 376.68 36.676 376.158 37.1632C375.636 37.6851 375.218 38.3115 374.94 39.0422C374.662 39.773 374.522 40.6081 374.522 41.5476V42.6263H372.156V44.3662C372.156 44.6794 372.261 44.923 372.469 45.0969C372.678 45.2709 372.922 45.3753 373.27 45.4449L374.453 45.6189Z" fill="#5D5D5D"/>
<path d="M356.324 57.7981C356.741 58.1809 357.263 58.4593 357.82 58.6333C358.411 58.8073 359.038 58.9116 359.769 58.9116C360.36 58.9116 360.847 58.8768 361.334 58.7725C361.787 58.6681 362.239 58.5289 362.657 58.3549C363.074 58.1809 363.457 57.9373 363.84 57.6589C364.223 57.3806 364.605 57.0674 365.023 56.7194L365.371 57.7633C365.51 58.1461 365.684 58.3549 365.893 58.4941C366.102 58.5985 366.415 58.6681 366.832 58.6681H368.816V48.5073C368.816 47.6026 368.677 46.7326 368.398 45.9671C368.12 45.2015 367.702 44.5404 367.18 43.9836C366.658 43.4269 365.997 42.9745 365.267 42.6613C364.501 42.3482 363.666 42.209 362.692 42.209C361.369 42.209 360.117 42.4178 358.968 42.8353C357.82 43.2529 356.776 43.8792 355.836 44.7492L356.602 46.1411C356.741 46.3499 356.915 46.5238 357.124 46.6978C357.333 46.837 357.576 46.9066 357.89 46.9066C358.237 46.9066 358.551 46.837 358.794 46.6978C359.073 46.5586 359.351 46.4194 359.629 46.2455C359.943 46.0715 360.291 45.9323 360.673 45.7931C361.056 45.6539 361.578 45.5843 362.17 45.5843C362.97 45.5843 363.596 45.8279 364.014 46.2803C364.431 46.7674 364.64 47.4982 364.64 48.5073V49.3424C362.796 49.3772 361.265 49.5512 360.012 49.8992C358.794 50.2123 357.82 50.6299 357.054 51.1171C356.289 51.6042 355.802 52.1262 355.489 52.7525C355.175 53.3789 355.036 53.9356 355.036 54.5272C355.036 55.2579 355.141 55.8843 355.384 56.441C355.558 56.963 355.906 57.4502 356.324 57.7981ZM359.386 53.4137C359.56 53.1353 359.838 52.9265 360.256 52.6829C360.673 52.4742 361.23 52.3002 361.926 52.161C362.622 52.0218 363.492 51.9522 364.571 51.8826V54.388C364.049 54.9448 363.527 55.3275 363.005 55.5711C362.483 55.8147 361.856 55.9539 361.126 55.9539C360.499 55.9539 360.012 55.8147 359.664 55.5711C359.316 55.3275 359.142 54.8752 359.142 54.2488C359.107 53.9704 359.212 53.6921 359.386 53.4137Z" fill="#5D5D5D"/>
<path d="M346.162 45.5841H336.141V35.9453H331.408V58.6679H336.141V48.8899H346.162V58.6679H350.895V35.9453H346.162V45.5841Z" fill="#5D5D5D"/>
<path d="M460.785 108.985L460.611 110.098C460.054 109.472 459.428 108.95 458.732 108.602C458.036 108.254 457.166 108.08 456.122 108.08C455.043 108.08 454.104 108.289 453.269 108.706C452.434 109.124 451.703 109.681 451.111 110.411C450.52 111.142 450.067 111.977 449.754 112.952C449.441 113.926 449.302 114.97 449.302 116.118C449.302 117.406 449.441 118.519 449.719 119.494C449.998 120.468 450.415 121.303 450.972 121.999C451.494 122.695 452.155 123.182 452.921 123.565C453.686 123.913 454.556 124.087 455.53 124.087C456.052 124.087 456.54 124.052 456.992 123.948C457.444 123.843 457.862 123.704 458.245 123.53C458.627 123.356 459.01 123.112 459.358 122.799C459.706 122.521 460.054 122.173 460.402 121.79V123.46C460.402 124.052 460.298 124.609 460.124 125.131C459.95 125.653 459.671 126.105 459.289 126.488C458.906 126.871 458.453 127.184 457.862 127.393C457.27 127.601 456.644 127.706 455.878 127.706C455.217 127.706 454.661 127.636 454.243 127.497C453.825 127.358 453.443 127.184 453.129 127.01C452.816 126.836 452.573 126.697 452.329 126.523C452.086 126.349 451.912 126.314 451.703 126.314C451.494 126.314 451.355 126.349 451.216 126.418C451.076 126.488 450.972 126.592 450.902 126.766L450.207 127.949C450.833 128.506 451.633 128.993 452.573 129.376C453.512 129.759 454.661 129.933 455.983 129.933C457.166 129.933 458.245 129.759 459.149 129.446C460.089 129.132 460.854 128.645 461.516 128.088C462.142 127.497 462.664 126.801 462.977 126.001C463.325 125.2 463.499 124.296 463.499 123.356V108.428H461.655C461.133 108.393 460.889 108.567 460.785 108.985ZM460.332 119.354C459.776 120.085 459.149 120.642 458.523 121.025C457.897 121.407 457.131 121.616 456.261 121.616C455.635 121.616 455.078 121.512 454.626 121.303C454.139 121.094 453.721 120.746 453.408 120.294C453.095 119.842 452.816 119.285 452.642 118.589C452.468 117.893 452.399 117.058 452.399 116.118C452.399 114.274 452.781 112.882 453.547 111.908C454.313 110.933 455.391 110.446 456.783 110.446C457.479 110.446 458.14 110.585 458.732 110.864C459.323 111.142 459.845 111.56 460.332 112.186V119.354Z" fill="#5D5D5D"/>
<path d="M445.196 108.08C444.187 108.08 443.317 108.358 442.586 108.985C441.856 109.611 441.264 110.411 440.742 111.455L440.568 109.228C440.498 108.915 440.429 108.706 440.324 108.602C440.22 108.498 439.977 108.428 439.629 108.428H437.889V124.33H440.951V114.378C441.16 113.856 441.368 113.404 441.577 113.021C441.821 112.604 442.064 112.291 442.378 112.012C442.691 111.734 443.004 111.525 443.387 111.386C443.769 111.247 444.187 111.177 444.674 111.177C445.022 111.177 445.335 111.212 445.614 111.247C445.892 111.316 446.136 111.351 446.275 111.351C446.553 111.351 446.727 111.212 446.797 110.933L447.006 108.637C446.762 108.498 446.518 108.358 446.205 108.289C445.857 108.115 445.544 108.08 445.196 108.08Z" fill="#5D5D5D"/>
<path d="M429.223 120.016C428.632 120.677 428.006 121.164 427.31 121.547C426.614 121.93 425.883 122.104 425.117 122.104C424.039 122.104 423.238 121.79 422.716 121.164C422.194 120.538 421.951 119.633 421.951 118.52V108.394H418.889V118.52C418.889 119.424 418.993 120.225 419.237 120.99C419.48 121.756 419.793 122.382 420.246 122.904C420.698 123.426 421.255 123.844 421.916 124.122C422.577 124.4 423.343 124.574 424.213 124.574C424.769 124.574 425.291 124.505 425.779 124.4C426.266 124.261 426.718 124.122 427.136 123.913C427.553 123.704 427.971 123.426 428.354 123.148C428.736 122.834 429.084 122.521 429.432 122.138L429.641 123.739C429.78 124.157 430.024 124.365 430.441 124.365H432.286V108.463H429.223V120.016Z" fill="#5D5D5D"/>
<path d="M412.695 110.203C412.173 109.542 411.546 109.02 410.781 108.637C410.015 108.255 409.18 108.081 408.275 108.081C407.197 108.081 406.257 108.289 405.422 108.742C404.587 109.194 403.856 109.786 403.195 110.516V101.121H400.133V124.226H402.116C402.569 124.226 402.812 124.018 402.917 123.6L403.056 122.278C403.334 122.626 403.613 122.939 403.926 123.217C404.239 123.496 404.552 123.704 404.935 123.913C405.318 124.122 405.7 124.261 406.118 124.331C406.536 124.4 407.023 124.47 407.545 124.47C408.589 124.47 409.563 124.261 410.398 123.844C411.233 123.426 411.964 122.835 412.555 122.104C413.147 121.373 413.599 120.434 413.913 119.39C414.226 118.346 414.4 117.163 414.4 115.875C414.4 114.657 414.26 113.579 413.982 112.604C413.599 111.699 413.217 110.899 412.695 110.203ZM409.98 120.642C409.215 121.651 408.136 122.173 406.709 122.173C406.014 122.173 405.387 122.034 404.796 121.791C404.204 121.512 403.682 121.06 403.16 120.399V112.883C403.717 112.152 404.308 111.595 404.97 111.177C405.631 110.76 406.362 110.586 407.231 110.586C408.484 110.586 409.424 111.038 410.12 111.908C410.781 112.778 411.129 114.17 411.129 116.084C411.164 118.067 410.746 119.598 409.98 120.642Z" fill="#5D5D5D"/>
<path d="M393.279 109.68C392.826 109.159 392.269 108.776 391.608 108.532C390.947 108.254 390.182 108.149 389.347 108.149C388.825 108.149 388.303 108.219 387.815 108.323C387.328 108.428 386.841 108.637 386.389 108.915C385.936 109.193 385.519 109.507 385.171 109.924C384.823 110.342 384.51 110.829 384.266 111.386C383.953 110.376 383.466 109.611 382.839 109.019C382.178 108.428 381.308 108.149 380.264 108.149C379.29 108.149 378.455 108.358 377.759 108.811C377.028 109.263 376.402 109.82 375.81 110.516L375.602 108.985C375.497 108.567 375.219 108.358 374.801 108.358H372.957V124.261H376.019V112.464C376.472 111.873 376.994 111.386 377.585 111.038C378.142 110.69 378.768 110.516 379.429 110.516C380.369 110.516 381.1 110.794 381.587 111.386C382.074 111.977 382.317 112.882 382.317 114.1V124.226H385.38V114.1C385.38 113.508 385.449 112.986 385.623 112.534C385.797 112.082 386.041 111.699 386.319 111.42C386.632 111.107 386.98 110.898 387.363 110.724C387.746 110.585 388.163 110.481 388.616 110.481C389.59 110.481 390.356 110.794 390.878 111.386C391.4 111.977 391.643 112.882 391.643 114.065V124.191H394.705V114.065C394.705 113.091 394.601 112.255 394.357 111.49C394.114 110.829 393.766 110.202 393.279 109.68Z" fill="#5D5D5D"/>
<path d="M366.067 109.785C365.58 109.263 364.988 108.846 364.292 108.532C363.596 108.219 362.796 108.08 361.891 108.08C360.639 108.08 359.525 108.289 358.481 108.706C357.437 109.124 356.463 109.75 355.593 110.585L356.15 111.56C356.254 111.699 356.359 111.838 356.533 111.977C356.707 112.117 356.881 112.151 357.089 112.151C357.368 112.151 357.611 112.082 357.855 111.908C358.098 111.734 358.377 111.56 358.725 111.351C359.038 111.142 359.456 110.968 359.908 110.794C360.36 110.62 360.917 110.551 361.578 110.551C362.552 110.551 363.318 110.829 363.84 111.455C364.362 112.047 364.606 112.952 364.606 114.135V115.283C362.796 115.318 361.265 115.492 360.047 115.77C358.794 116.049 357.82 116.431 357.055 116.884C356.289 117.336 355.732 117.858 355.384 118.45C355.036 119.041 354.862 119.633 354.862 120.259C354.862 120.955 354.967 121.581 355.21 122.138C355.454 122.66 355.767 123.112 356.185 123.46C356.602 123.808 357.055 124.087 357.611 124.261C358.168 124.435 358.76 124.504 359.386 124.504C359.977 124.504 360.534 124.435 361.021 124.365C361.509 124.261 361.961 124.122 362.413 123.913C362.866 123.704 363.248 123.46 363.666 123.182C364.049 122.904 364.466 122.556 364.884 122.173L365.197 123.565C365.301 123.843 365.406 124.017 365.58 124.122C365.754 124.226 365.963 124.261 366.276 124.261H367.633V114.135C367.633 113.23 367.494 112.43 367.25 111.664C366.937 110.933 366.554 110.307 366.067 109.785ZM364.536 120.363C364.223 120.677 363.91 120.99 363.596 121.233C363.283 121.477 362.97 121.686 362.622 121.86C362.274 122.034 361.926 122.173 361.509 122.277C361.126 122.382 360.673 122.417 360.221 122.417C359.873 122.417 359.525 122.382 359.247 122.277C358.934 122.208 358.69 122.069 358.446 121.86C358.203 121.651 358.029 121.442 357.924 121.164C357.785 120.885 357.716 120.537 357.716 120.155C357.716 119.737 357.82 119.354 358.064 119.006C358.307 118.658 358.69 118.38 359.247 118.136C359.803 117.893 360.499 117.684 361.369 117.545C362.239 117.406 363.283 117.301 364.536 117.267V120.363Z" fill="#5D5D5D"/>
<path d="M346.858 111.734H335.132V101.816H331.791V124.295H335.132V114.169H346.858V124.295H350.199V101.816H346.858V111.734Z" fill="#5D5D5D"/>
<path d="M345.884 83.2353C345.884 84.0705 345.78 84.836 345.571 85.4972C345.362 86.1583 345.049 86.7499 344.631 87.2022C344.214 87.6546 343.692 88.0374 343.1 88.2809C342.509 88.5245 341.813 88.6637 341.047 88.6637C340.282 88.6637 339.586 88.5245 338.994 88.2809C338.403 88.0374 337.881 87.6546 337.463 87.2022C337.045 86.7151 336.732 86.1583 336.524 85.4972C336.315 84.836 336.21 84.0705 336.21 83.2353V69.6992H331.513V83.2353C331.513 84.6272 331.721 85.8799 332.174 87.0282C332.626 88.1765 333.253 89.1857 334.088 90.0208C334.923 90.8559 335.932 91.5171 337.115 91.9694C338.298 92.4218 339.62 92.6654 341.117 92.6654C342.613 92.6654 343.935 92.4218 345.118 91.9694C346.302 91.4823 347.311 90.8559 348.111 90.0208C348.946 89.1857 349.572 88.1765 350.025 87.0282C350.477 85.8799 350.686 84.5924 350.686 83.2353V69.6992H345.884V83.2353Z" fill="#5D5D5D"/>
<path d="M368.189 77.7715C367.737 77.2147 367.145 76.7971 366.484 76.5188C365.823 76.2056 365.023 76.0664 364.153 76.0664C363.631 76.0664 363.143 76.136 362.656 76.2056C362.169 76.2752 361.786 76.4492 361.404 76.658C361.021 76.8319 360.638 77.0755 360.29 77.3191C359.942 77.5975 359.594 77.8759 359.281 78.189L359.003 77.0755C358.829 76.5884 358.481 76.31 357.924 76.31H355.279V92.4559H359.594V80.8684C360.081 80.3813 360.568 80.0333 361.125 79.7897C361.647 79.5113 362.239 79.4069 362.83 79.4069C363.631 79.4069 364.257 79.6505 364.675 80.1377C365.092 80.6248 365.301 81.3208 365.301 82.2255V92.4907H369.616V82.2255C369.616 81.3208 369.511 80.4857 369.268 79.7549C369.024 78.9546 368.676 78.2934 368.189 77.7715Z" fill="#5D5D5D"/>
<path d="M378.802 76.3105H374.487V92.4565H378.802V76.3105Z" fill="#5D5D5D"/>
<path d="M379.325 71.7172C379.325 71.3692 379.255 71.0213 379.116 70.7081C378.977 70.3949 378.768 70.1165 378.525 69.873C378.281 69.6294 378.003 69.4554 377.655 69.3162C377.341 69.177 376.959 69.1074 376.611 69.1074C376.263 69.1074 375.915 69.177 375.602 69.3162C375.288 69.4554 375.01 69.6294 374.766 69.873C374.523 70.1165 374.349 70.3949 374.21 70.7081C374.071 71.0213 374.001 71.3692 374.001 71.7172C374.001 72.0652 374.071 72.4132 374.21 72.7263C374.349 73.0395 374.558 73.3179 374.766 73.5615C375.01 73.805 375.288 73.979 375.602 74.1182C375.915 74.2574 376.263 74.327 376.611 74.327C376.994 74.327 377.341 74.2574 377.655 74.1182C377.968 73.979 378.281 73.805 378.525 73.5615C378.768 73.3179 378.977 73.0395 379.116 72.7263C379.255 72.4132 379.325 72.0652 379.325 71.7172Z" fill="#5D5D5D"/>
<path d="M394.565 76.5193C394.357 76.6585 394.217 76.8673 394.148 77.0761L391.329 85.0446C391.155 85.6014 390.981 86.1234 390.842 86.6453C390.703 87.1673 390.564 87.6892 390.459 88.2112C390.355 87.6892 390.251 87.1673 390.111 86.6453C389.972 86.1234 389.833 85.6014 389.624 85.0446L386.91 77.0761C386.84 76.8325 386.666 76.6585 386.458 76.5193C386.249 76.3801 385.971 76.3105 385.657 76.3105H382.073L388.406 92.4565H392.338L398.672 76.3105H395.261C395.018 76.3105 394.774 76.3801 394.565 76.5193Z" fill="#5D5D5D"/>
<path d="M413.495 77.9803C412.869 77.3539 412.103 76.8667 411.233 76.5536C410.363 76.2404 409.424 76.0664 408.38 76.0664C407.162 76.0664 406.048 76.2752 405.109 76.6928C404.135 77.1103 403.299 77.7019 402.638 78.3978C401.942 79.1286 401.455 79.9637 401.072 80.938C400.724 81.9123 400.516 82.9563 400.516 84.035C400.516 85.4617 400.724 86.7144 401.142 87.7931C401.56 88.8718 402.116 89.7765 402.847 90.5073C403.578 91.238 404.413 91.7947 405.387 92.1427C406.362 92.5255 407.405 92.6995 408.554 92.6995C409.111 92.6995 409.702 92.6647 410.294 92.5951C410.885 92.5255 411.512 92.3863 412.103 92.1775C412.695 91.9687 413.286 91.6904 413.843 91.3424C414.4 90.9944 414.887 90.542 415.374 90.0201L414.121 88.4542C413.947 88.2106 413.669 88.0714 413.321 88.0714C413.077 88.0714 412.799 88.141 412.521 88.2802C412.242 88.4194 411.964 88.5934 411.616 88.7326C411.303 88.9066 410.92 89.0458 410.468 89.2198C410.015 89.3937 409.528 89.4285 408.937 89.4285C407.753 89.4285 406.814 89.0806 406.083 88.3846C405.352 87.6887 404.935 86.5752 404.796 85.0789H414.469C414.678 85.0789 414.817 85.0441 414.956 85.0093C415.096 84.9745 415.165 84.8701 415.27 84.7657C415.339 84.6265 415.409 84.4873 415.444 84.2785C415.478 84.0698 415.478 83.7914 415.478 83.4782C415.478 82.2951 415.304 81.2512 414.956 80.3465C414.609 79.3721 414.121 78.6066 413.495 77.9803ZM404.9 82.4691C405.074 81.3904 405.457 80.5552 406.048 79.9637C406.64 79.3721 407.44 79.0938 408.484 79.0938C409.041 79.0938 409.528 79.1982 409.911 79.3721C410.294 79.5461 410.642 79.7897 410.885 80.1029C411.129 80.4161 411.338 80.764 411.442 81.1816C411.546 81.5992 411.616 82.0167 411.616 82.4691H404.9Z" fill="#5D5D5D"/>
<path d="M423.83 82.5737C424.004 82.191 424.178 81.843 424.387 81.5298C424.596 81.2167 424.805 80.9731 425.048 80.7643C425.292 80.5555 425.57 80.3815 425.883 80.2771C426.196 80.1727 426.544 80.1031 426.927 80.1031C427.206 80.1031 427.484 80.1379 427.797 80.1727C428.11 80.2075 428.354 80.2423 428.528 80.2423C428.702 80.2423 428.876 80.2075 428.98 80.1379C429.085 80.0683 429.154 79.9292 429.224 79.7204L429.502 76.519C429.05 76.1711 428.458 75.9971 427.727 75.9971C426.823 75.9971 426.057 76.2754 425.396 76.7974C424.735 77.3194 424.143 78.0501 423.621 78.9896L423.378 77.389C423.308 77.0062 423.169 76.7278 423.03 76.5886C422.856 76.4146 422.578 76.345 422.125 76.345H419.585V92.491H423.9V82.5737H423.83Z" fill="#5D5D5D"/>
<path d="M442.064 91.1685C442.62 90.6813 443.038 90.1246 443.316 89.4634C443.595 88.8023 443.734 88.0715 443.734 87.306C443.734 86.6449 443.63 86.0881 443.421 85.6357C443.212 85.1834 442.899 84.7658 442.551 84.4526C442.203 84.1395 441.785 83.8611 441.333 83.6175C440.881 83.3739 440.393 83.1999 439.906 83.026C439.419 82.852 438.932 82.7128 438.48 82.5736C438.027 82.4344 437.61 82.2952 437.262 82.1212C436.914 81.9472 436.601 81.7733 436.392 81.5645C436.183 81.3557 436.079 81.0773 436.079 80.7641C436.079 80.3118 436.287 79.929 436.67 79.6158C437.053 79.3374 437.61 79.1983 438.306 79.1983C438.758 79.1983 439.176 79.2679 439.524 79.3722C439.871 79.4766 440.185 79.581 440.463 79.7202C440.741 79.8246 440.985 79.9638 441.194 80.0682C441.403 80.1726 441.611 80.2074 441.82 80.2074C442.029 80.2074 442.203 80.1726 442.307 80.103C442.412 80.0334 442.551 79.8942 442.655 79.7202L443.63 78.1891C443.038 77.5976 442.238 77.1104 441.298 76.7277C440.359 76.3449 439.315 76.1709 438.166 76.1709C437.157 76.1709 436.253 76.3101 435.452 76.5885C434.687 76.8668 434.026 77.2148 433.504 77.702C432.982 78.1543 432.599 78.6763 432.32 79.3027C432.077 79.8942 431.938 80.5206 431.938 81.2165C431.938 81.9472 432.042 82.5736 432.286 83.0955C432.494 83.6175 432.808 84.0351 433.156 84.383C433.504 84.731 433.921 85.0094 434.408 85.253C434.895 85.4966 435.348 85.6705 435.835 85.8445C436.322 86.0185 436.809 86.1577 437.262 86.2969C437.714 86.4361 438.132 86.5753 438.514 86.7493C438.897 86.9232 439.176 87.0972 439.384 87.3408C439.593 87.5844 439.732 87.8628 439.732 88.2107C439.732 88.4195 439.698 88.6283 439.593 88.8371C439.489 89.0459 439.35 89.2199 439.176 89.3938C439.002 89.5678 438.758 89.6722 438.445 89.7766C438.132 89.881 437.784 89.9158 437.366 89.9158C436.809 89.9158 436.357 89.8462 435.974 89.707C435.591 89.5678 435.278 89.4286 435 89.2895C434.722 89.1503 434.478 89.0111 434.269 88.8719C434.06 88.7327 433.817 88.6631 433.538 88.6631C433.26 88.6631 433.051 88.6979 432.877 88.8023C432.703 88.9067 432.564 89.0459 432.46 89.2547L431.485 90.7161C431.799 90.9945 432.181 91.2729 432.599 91.5165C433.016 91.7601 433.469 91.9688 433.991 92.1428C434.478 92.3168 435 92.456 435.557 92.5604C436.113 92.6648 436.635 92.6996 437.192 92.6996C438.271 92.6996 439.21 92.5604 440.045 92.282C440.846 92.0036 441.542 91.6209 442.064 91.1685Z" fill="#5D5D5D"/>
<path d="M452.259 76.3105H447.944V92.4565H452.259V76.3105Z" fill="#5D5D5D"/>
<path d="M449.058 74.1182C449.371 74.2574 449.719 74.327 450.067 74.327C450.45 74.327 450.798 74.2574 451.111 74.1182C451.424 73.979 451.737 73.805 451.981 73.5615C452.224 73.3179 452.433 73.0395 452.572 72.7263C452.711 72.4132 452.781 72.0652 452.781 71.7172C452.781 71.3692 452.711 71.0213 452.572 70.7081C452.433 70.3949 452.224 70.1165 451.981 69.873C451.737 69.6294 451.459 69.4554 451.111 69.3162C450.798 69.177 450.415 69.1074 450.067 69.1074C449.719 69.1074 449.371 69.177 449.058 69.3162C448.745 69.4554 448.466 69.6294 448.223 69.873C447.979 70.1165 447.805 70.3949 447.666 70.7081C447.527 71.0213 447.457 71.3692 447.457 71.7172C447.457 72.0652 447.527 72.4132 447.666 72.7263C447.805 73.0395 448.014 73.3179 448.223 73.5615C448.466 73.805 448.745 73.979 449.058 74.1182Z" fill="#5D5D5D"/>
<path d="M465.692 88.907C465.622 88.8374 465.518 88.8374 465.378 88.8374C465.274 88.8374 465.204 88.8722 465.1 88.907C464.996 88.9418 464.926 89.0114 464.822 89.0462C464.717 89.081 464.578 89.1506 464.439 89.1854C464.3 89.2202 464.126 89.255 463.917 89.255C463.534 89.255 463.221 89.1158 463.012 88.8722C462.803 88.6287 462.699 88.2459 462.699 87.7935V79.3726H466.875V76.38H462.699V71.4736H460.437C459.915 71.4736 459.602 71.7172 459.498 72.1696L458.628 76.3452L456.053 76.8324V78.5375C456.053 78.8158 456.122 79.0594 456.296 79.1986C456.47 79.3378 456.644 79.4074 456.888 79.4074H458.419V88.1067C458.419 88.8026 458.523 89.4638 458.732 90.0205C458.941 90.5773 459.219 91.0645 459.602 91.4472C459.985 91.83 460.472 92.1432 461.029 92.352C461.586 92.5607 462.247 92.6651 462.977 92.6651C463.778 92.6651 464.543 92.5607 465.309 92.3172C466.074 92.0736 466.735 91.7256 467.327 91.2384L466.04 89.1854C465.866 89.0462 465.761 88.9766 465.692 88.907Z" fill="#5D5D5D"/>
<path d="M480.724 70.047C480.445 69.9426 480.132 69.873 479.819 69.873C479.506 69.873 479.193 69.9426 478.914 70.047C478.636 70.1514 478.392 70.3254 478.184 70.5342C477.975 70.743 477.801 70.9866 477.696 71.2649C477.592 71.5433 477.522 71.8565 477.522 72.1697C477.522 72.4828 477.592 72.7612 477.696 73.0396C477.801 73.318 477.975 73.5616 478.184 73.7355C478.392 73.9095 478.636 74.0835 478.914 74.2227C479.193 74.3619 479.506 74.3967 479.819 74.3967C480.132 74.3967 480.445 74.3271 480.724 74.2227C481.002 74.1183 481.246 73.9443 481.455 73.7355C481.663 73.5268 481.837 73.2832 481.942 73.0396C482.081 72.7612 482.116 72.4828 482.116 72.1697C482.116 71.8565 482.046 71.5433 481.942 71.2649C481.803 70.9866 481.663 70.743 481.455 70.5342C481.281 70.3254 481.037 70.1514 480.724 70.047Z" fill="#5D5D5D"/>
<path d="M481.489 77.7717C480.967 77.215 480.306 76.7626 479.575 76.4494C478.81 76.1363 477.974 75.9971 477 75.9971C475.678 75.9971 474.425 76.2059 473.277 76.6234C472.128 77.041 471.085 77.7021 470.145 78.5373L470.911 79.9292C471.05 80.1379 471.224 80.3119 471.433 80.4859C471.641 80.6599 471.885 80.7295 472.198 80.7295C472.546 80.7295 472.859 80.6599 473.103 80.5207C473.381 80.3815 473.66 80.2423 473.938 80.0683C474.216 79.8944 474.599 79.7552 474.982 79.616C475.365 79.4768 475.887 79.4072 476.478 79.4072C477.278 79.4072 477.905 79.6508 478.322 80.1379C478.74 80.6251 478.949 81.3558 478.949 82.365V83.2001C477.104 83.2349 475.573 83.4089 474.321 83.7568C473.103 84.07 472.129 84.4876 471.363 84.9748C470.597 85.4619 470.11 85.9839 469.797 86.6102C469.484 87.2366 469.345 87.7933 469.345 88.3849C469.345 89.1156 469.449 89.742 469.693 90.2987C469.936 90.8555 470.249 91.3078 470.667 91.6906C471.085 92.0734 471.607 92.3518 472.163 92.5257C472.755 92.6997 473.381 92.8041 474.112 92.8041C474.703 92.8041 475.191 92.7693 475.678 92.6649C476.13 92.5605 476.583 92.4214 477 92.2474C477.418 92.0734 477.8 91.8298 478.183 91.5514C478.566 91.273 478.949 90.9599 479.366 90.6119L479.714 91.6558C479.853 92.0038 480.027 92.2474 480.236 92.3866C480.445 92.4909 480.758 92.5605 481.176 92.5605H483.159V82.3998C483.159 81.495 483.02 80.6251 482.742 79.8596C482.463 79.094 482.011 78.3285 481.489 77.7717ZM478.914 88.2109C478.392 88.7677 477.87 89.1504 477.348 89.394C476.826 89.6376 476.2 89.7768 475.469 89.7768C474.843 89.7768 474.356 89.6376 474.008 89.394C473.66 89.1504 473.486 88.6981 473.486 88.0717C473.486 87.7585 473.555 87.4801 473.729 87.2018C473.903 86.9234 474.182 86.7146 474.599 86.5058C475.017 86.297 475.573 86.1231 476.269 85.9839C476.965 85.8447 477.835 85.7751 478.914 85.7055V88.2109Z" fill="#5D5D5D"/>
<path d="M474.216 70.047C473.938 69.9426 473.625 69.873 473.312 69.873C472.998 69.873 472.72 69.9426 472.442 70.047C472.163 70.1514 471.92 70.3254 471.711 70.5342C471.502 70.743 471.328 70.9866 471.224 71.2649C471.119 71.5433 471.05 71.8565 471.05 72.1697C471.05 72.4828 471.119 72.7612 471.224 73.0396C471.363 73.318 471.502 73.5616 471.711 73.7355C471.92 73.9095 472.163 74.0835 472.442 74.2227C472.72 74.3619 472.998 74.3967 473.312 74.3967C473.625 74.3967 473.938 74.3271 474.216 74.2227C474.495 74.1183 474.738 73.9443 474.982 73.7355C475.225 73.5268 475.365 73.2832 475.504 73.0396C475.643 72.7612 475.678 72.4828 475.678 72.1697C475.678 71.8565 475.608 71.5433 475.504 71.2649C475.365 70.9866 475.225 70.743 474.982 70.5342C474.773 70.3254 474.495 70.1514 474.216 70.047Z" fill="#5D5D5D"/>
<path d="M496.278 89.1854C496.208 89.0462 496.104 88.9418 496.034 88.907C495.964 88.8722 495.86 88.8374 495.721 88.8374C495.616 88.8374 495.547 88.8722 495.442 88.907C495.338 88.9418 495.268 89.0114 495.164 89.0462C495.06 89.081 494.92 89.1506 494.781 89.1854C494.642 89.2202 494.468 89.255 494.259 89.255C493.877 89.255 493.563 89.1158 493.355 88.8722C493.146 88.5939 493.041 88.2459 493.041 87.7935V79.3726H497.217V76.38H493.041V71.4736H490.78C490.258 71.4736 489.944 71.7172 489.805 72.1696L488.935 76.3452L486.36 76.8324V78.5375C486.36 78.8158 486.43 79.0594 486.604 79.1986C486.778 79.3378 486.952 79.4074 487.195 79.4074H488.727V88.1067C488.727 88.8026 488.831 89.4638 489.04 90.0205C489.248 90.5773 489.527 91.0645 489.91 91.4472C490.292 91.83 490.78 92.1432 491.336 92.352C491.893 92.5607 492.554 92.6651 493.285 92.6651C494.085 92.6651 494.886 92.5607 495.616 92.3172C496.382 92.0736 497.043 91.7256 497.635 91.2384L496.278 89.1854Z" fill="#5D5D5D"/>
</svg>
