<svg width="97" height="97" viewBox="0 0 97 97" fill="none" xmlns="http://www.w3.org/2000/svg">
<path d="M80.181 23.886L95.6664 53.2638L91.9255 55.1923M80.181 23.886L52.1682 75.6883M80.181 23.886L42.3376 13.8231M52.1682 75.6883L55.7088 73.8631M52.1682 75.6883L39.258 67.7789M91.9255 55.1923L89.6636 73.6893L55.3001 95.5054M91.9255 55.1923L55.7088 73.8631M55.3001 95.5054L55.7088 73.8631M55.3001 95.5054L40.0757 84.5262M6.06015 47.4404L7.45209 60.9994L33.986 80.1345M6.06015 47.4404L0.666381 44.1376L20.5015 7.71946L35.7597 11.9845M6.06015 47.4404L33.1575 64.0415M42.3376 13.8231V1.37454M42.3376 13.8231L35.7597 11.9845M42.3376 1.37454L36.9439 0.505371L30.5061 1.37454M42.3376 1.37454L35.7597 2.98671M30.5061 1.37454V10.516M30.5061 1.37454L35.7597 2.98671M40.0757 84.5262L39.258 67.7789M40.0757 84.5262L33.986 80.1345M39.258 67.7789L33.1575 64.0415M33.1575 64.0415L33.986 80.1345M35.7597 2.98671V11.9845M78.7891 44.1376L78.3541 53.6984L74.9613 55.1923V45.6152L78.7891 44.1376ZM82.2689 61.1733L81.921 69.1696L78.6151 71.1687L78.7891 63.0854L82.2689 61.1733ZM72.5254 73.8631L68.6975 76.2099V68.3004L72.6993 66.1275L72.5254 73.8631ZM23.8944 59.5218L24.2424 64.0415L21.1105 62.0424L20.7625 57.5228L23.8944 59.5218Z" stroke="#4A594A"/>
</svg>
