<svg width="195" height="136" viewBox="0 0 195 136" fill="none" xmlns="http://www.w3.org/2000/svg">
<path d="M129.015 49.3806L144.5 78.7585L140.759 80.687M129.015 49.3806L101.002 101.183M129.015 49.3806L91.1712 39.3178M101.002 101.183L104.542 99.3577M101.002 101.183L88.0916 93.2736M140.759 80.687L138.497 99.1839L104.134 121M140.759 80.687L104.542 99.3577M104.134 121L104.542 99.3577M104.134 121L88.9093 110.021M54.8938 72.935L56.2857 86.4941L82.8196 105.629M54.8938 72.935L49.5 69.6322L69.3352 33.2141L84.5933 37.4791M54.8938 72.935L81.9911 89.5361M91.1712 39.3178V26.8692M91.1712 39.3178L84.5933 37.4791M91.1712 26.8692L85.7775 26L79.3397 26.8692M91.1712 26.8692L84.5933 28.4813M79.3397 26.8692V36.0106M79.3397 26.8692L84.5933 28.4813M88.9093 110.021L88.0916 93.2736M88.9093 110.021L82.8196 105.629M88.0916 93.2736L81.9911 89.5361M81.9911 89.5361L82.8196 105.629M84.5933 28.4813V37.4791M127.623 69.6322L127.188 79.193L123.795 80.687V71.1098L127.623 69.6322ZM131.103 86.6679L130.755 94.6642L127.449 96.6633L127.623 88.5801L131.103 86.6679ZM121.359 99.3577L117.531 101.704V93.7951L121.533 91.6221L121.359 99.3577ZM72.728 85.0165L73.076 89.5361L69.9441 87.5371L69.5962 83.0174L72.728 85.0165Z" stroke="#4A594A"/>
</svg>
