<svg width="93" height="110" viewBox="0 0 93 110" fill="none" xmlns="http://www.w3.org/2000/svg">
<path d="M0.720581 45.8806L1.79003 46.3662L5.38529 73.2691M0.720581 45.8806L16.9567 21.4058M0.720581 45.8806L41.3595 67.6019M42.3317 68.1216L16.9567 21.4058M42.3317 68.1216L41.3595 67.6019M42.3317 68.1216L85.0122 40.5085M16.9567 21.4058L72.9567 0.621582L91.7206 36.1683L89.29 37.7408M65.3734 16.5496L64.8872 21.8914L70.04 30.9237M65.3734 16.5496L70.915 18.5892M65.3734 16.5496L69.7484 14.7043L74.8039 16.5496M70.915 18.5892L74.8039 16.5496M70.915 18.5892L70.04 30.9237M74.8039 16.5496L73.4428 29.1755L70.04 30.9237M40.6789 108.622L83.8456 71.4237L89.29 37.7408M40.6789 108.622L40.8787 96.5784M40.6789 108.622L22.9845 96.1922M41.3595 67.6019L40.8787 96.5784M89.29 37.7408L85.0122 40.5085M5.38529 73.2691L6.9428 84.9237L11.415 88.0652M5.38529 73.2691L32.5122 91.084M40.8787 96.5784L81.415 63.5568L85.0122 40.5085M40.8787 96.5784L40.6789 96.4472M32.5122 91.084V80.0676L39.3178 83.7583V95.5533M32.5122 91.084L39.3178 95.5533M32.5122 91.084L31.54 90.4455L18.5122 93.0507M39.3178 95.5533L40.6789 96.4472M11.415 88.0652L10.9289 80.0676L15.3039 82.6899V90.797M11.415 88.0652L15.3039 90.797M15.3039 90.797L18.5122 93.0507M18.5122 93.0507L15.3039 95.5533L17.0539 97.3554L22.9845 96.1922M22.9845 96.1922L29.2067 95.2187L36.3039 99.7835L40.6789 96.4472M10.9289 39.1791L11.415 47.4345L15.79 49.6683L15.4011 41.1216L10.9289 39.1791ZM22.4984 44.618V52.6791L27.0678 55.2043V46.9489L22.4984 44.618ZM15.79 57.6324L15.9845 64.6252L19.9706 66.7619V59.7691L15.79 57.6324ZM26.4845 63.5568V70.6468L30.9567 73.2691V65.7906L26.4845 63.5568ZM67.9011 52.6791L67.415 59.6719L71.0122 57.2439L71.5956 50.3482L67.9011 52.6791ZM76.5539 46.9489L75.9706 53.5532L78.4984 51.805L79.2761 45.1036L76.5539 46.9489Z" stroke="#4A594A"/>
</svg>
