<svg width="195" height="136" viewBox="0 0 195 136" fill="none" xmlns="http://www.w3.org/2000/svg">
<path d="M150.767 29.5721L159 49.9163L157.378 50.9544M150.767 29.5721L87.146 14L78.289 32.0837M150.767 29.5721L134.674 65.4884M134.674 65.4884L124.944 61.7209M134.674 65.4884L135.447 65.0366M124.944 61.7209L109.6 42.2558M124.944 61.7209L88.8925 84.2M124.944 61.7209L122.96 93.4977M122.824 96.7581L132.678 101.405M122.824 96.7581L122.96 93.4977M122.824 96.7581L109.6 106.595M88.8925 122L42.3621 92.6139L39.7303 67.4977M88.8925 122V118.614M88.8925 122L101.991 112.256M39.2434 62.8512L36 60.9674L56.9574 25.3023L109.6 42.2558M39.2434 62.8512L39.7303 67.4977M39.2434 62.8512L51.0943 68.7845M109.6 42.2558L86.7494 85.2046M88.8925 84.2V118.614M88.8925 84.2L86.7494 85.2046M157.378 50.9544L154.286 75.0326M157.378 50.9544L135.447 65.0366M132.678 101.405L133.801 89.8512M132.678 101.405L138.292 96.8558M154.286 75.0326L154.077 76.6651M154.286 75.0326L146.525 80.6467M133.801 89.8512L135.447 65.0366M133.801 89.8512L146.525 80.6467M122.96 93.4977L109.6 103.419M88.8925 118.614L58.9533 100.405L56.9574 76.7907L39.7303 67.4977M88.8925 118.614L101.991 109.002M68.8083 56.4465L70.929 52.3023L70.1805 42.2558M68.8083 56.4465L66.9066 55.2856L65.4096 43.386M68.8083 56.4465L67.5609 43.7628M65.4096 43.386L67.5609 43.7628M65.4096 43.386L68.1541 41.8791L70.1805 42.2558M67.5609 43.7628L70.1805 42.2558M113.218 22.414L113.093 33.5907L110.973 37.3581M113.218 22.414L110.973 24.6744M113.218 22.414L110.973 21.9116L108.103 23.9209M110.973 37.3581L108.103 36.7302V23.9209M110.973 37.3581V24.6744M108.103 23.9209L110.973 24.6744M109.6 106.595V98.6419L101.991 103.54V109.002M109.6 106.595L101.991 112.256M101.991 112.256V109.002M83.0294 84.7735L86.1481 86.3349L86.7494 85.2046M83.0294 84.7735V88.9721L78.6233 86.7116V82.5674M83.0294 84.7735L78.6233 82.5674M78.6233 82.5674L73.7982 80.1517M73.7982 80.1517V84.5223L70.0558 82.4419L69.8443 78.1721M73.7982 80.1517L69.8443 78.1721M69.8443 78.1721L62.3195 74.4046M62.3195 74.4046V76.8903L58.7039 75.0066L58.6513 72.5681M62.3195 74.4046L58.6513 72.5681M58.6513 72.5681L54.712 70.5958M54.712 70.5958V72.7461L51.0943 70.8624V68.7845M54.712 70.5958L51.0943 68.7845M141.91 75.7233L138.292 78.1721L138.043 83.1953L141.723 80.5581M141.91 75.7233L145.527 73.2744L145.153 78.1721L141.723 80.5581M141.91 75.7233L141.723 80.5581M153.649 79.993L153.012 84.9535L147.355 89.4744M153.649 79.993L155.632 78.1721V77.1674L154.077 76.6651M153.649 79.993L154.077 76.6651M153.649 79.993L151.64 81.4372L142.533 98.5163L138.043 96.7581L146.525 80.6467M153.262 43.386L152.638 50.293L149.644 52.1767L150.268 44.893L153.262 43.386ZM146.9 47.1535L146.525 53.8093L143.032 56.0698L143.531 48.9116L146.9 47.1535ZM153.262 56.0698L152.638 62.6L149.644 64.4837L150.268 57.8279L153.262 56.0698ZM146.9 59.9628L146.525 66.6186L143.531 68.8791L144.03 61.7209L146.9 59.9628ZM151.64 76.3818L152.638 67.3721L149.02 69.3814L148.147 78.8306L151.64 76.3818ZM116.087 58.4558V63.9814L112.345 66.1163V60.3395L116.087 58.4558ZM105.359 64.4837V69.7581L101.367 72.0186V66.1163L105.359 64.4837ZM122.075 67.4977V72.0186L118.582 74.4046V69.7581L122.075 67.4977ZM115.214 72.0186V76.2884L111.721 78.5488V74.4046L115.214 72.0186ZM104.735 78.1721V82.5674L100.993 85.2046V80.5581L104.735 78.1721ZM96.6268 82.9442V87.9674L92.5101 90.3535V85.2046L96.6268 82.9442ZM120.828 78.1721V84.2L116.96 87.214V80.5581L120.828 78.1721ZM113.717 82.9442V89.8512L109.6 92.4884V85.707L113.717 82.9442ZM105.983 88.3442V95L102.49 97.6372V90.9814L105.983 88.3442ZM97.7495 93.7442V100.777L93.7576 103.54V96.2558L97.7495 93.7442ZM83.0294 96.2558V103.163L79.1623 100.777V94.4977L83.0294 96.2558ZM73.7982 91.7349V98.2651L70.0558 96.2558V89.8512L73.7982 91.7349ZM65.3154 87.214V93.2419L61.9473 91.4837V85.4558L65.3154 87.214ZM52.9655 83.9442L50.4706 82.5628L49.9716 76.0632L52.5913 77.4446L52.9655 83.9442ZM46.354 74.305L46.8529 80.4279L44.7322 79.0465L44.1085 73.0492L46.354 74.305Z" stroke="#4A594A"/>
</svg>
