<svg width="195" height="136" viewBox="0 0 195 136" fill="none" xmlns="http://www.w3.org/2000/svg">
<path d="M51.5476 79.7258L46.2738 83.8554M51.5476 79.7258L54.0052 84.5075M51.5476 79.7258L61.1165 75.8941M43.6097 87.985H41L46.2738 83.8554M43.6097 87.985L44.1806 93.1795M43.6097 87.985L56.0058 99.4307M71.2291 122L44.3709 96.2443L44.1806 93.1795M71.2291 122V114.755M71.2291 122L84.7126 114.479M71.2291 114.755L69.9243 115.48L66.7963 109.394M71.2291 114.755L84.7126 107.263M66.7963 109.394L54.0052 84.5075M66.7963 109.394L56.0058 99.4307M46.2738 83.8554L54.701 91.2453L54.0052 84.5075M149.52 57.665L102.002 79.7258L100.697 76.8936M149.52 57.665L153 56.1436L131.47 13L77.3184 26.1496M149.52 57.665L148.35 67.989M77.3184 26.1496L71.5537 36.4736M77.3184 26.1496L84.7126 42.1988M63.0738 55.1655H61.1165L71.5537 36.4736M63.0738 55.1655V59.5125M63.0738 55.1655L100.697 76.8936M63.0738 59.5125L54.0052 62.7727L56.0058 64.5115M63.0738 59.5125L63.835 68.9303M56.0058 64.5115L56.8757 73.2054L61.1165 75.8941M56.0058 64.5115L63.835 68.9303M61.1165 75.8941L69.9243 72.3671M84.7126 107.263V114.479M84.7126 107.263L93.3573 102.46M84.7126 114.479L93.3573 109.657M93.3573 102.46V109.657M93.3573 102.46L100.697 98.382M93.3573 109.657L100.697 105.563M100.697 98.382L102.002 97.657L100.697 95.4393M100.697 98.382V105.563M100.697 105.563L147.019 79.7258L148.35 67.989M100.697 76.8936V91.8973M100.697 76.8936L84.7126 42.1988M100.697 95.4393V91.8973M100.697 95.4393L97.435 89.895M100.697 91.8973L148.35 67.989M100.697 91.8973L97.435 89.895M97.435 89.895L83.8427 66.7936L69.9243 72.3671M69.9243 72.3671L63.835 68.9303M44.1806 93.1795L56.0058 104.563V99.4307M71.5537 36.4736L84.7126 42.1988M114.996 75.014L120.596 72.3671V76.8936L114.996 79.6138M114.996 75.014L109.396 77.661V82.334L114.996 79.6138M114.996 75.014V79.6138M137.614 64.7831L142.017 62.7727V66.7936L137.614 69.1844M137.614 64.7831L133.21 66.7936V71.5753L137.614 69.1844M137.614 64.7831V69.1844M115.485 43.32L113.093 38.7557V26.8016M115.485 43.32L117.769 42.4506L118.53 27.4536M115.485 43.32L116.029 28.323M118.53 27.4536L116.029 28.323M118.53 27.4536L115.485 25.8235L113.093 26.8016M116.029 28.323L113.093 26.8016M69.9243 48.1017V56.1436L74.2738 57.665V50.2752L69.9243 48.1017ZM86.1262 56.1436V64.5115L91.0194 66.7936V58.7517L86.1262 56.1436Z" stroke="#4A594A"/>
</svg>
