<svg width="195" height="136" viewBox="0 0 195 136" fill="none" xmlns="http://www.w3.org/2000/svg">
<path d="M52 59.259L53.0694 59.7446L56.6647 86.6475M52 59.259L68.2361 34.7842M52 59.259L92.6389 80.9804M93.6111 81.5L68.2361 34.7842M93.6111 81.5L92.6389 80.9804M93.6111 81.5L136.292 53.8869M68.2361 34.7842L124.236 14L143 49.5468L140.569 51.1193M116.653 29.9281L116.167 35.2698L121.319 44.3022M116.653 29.9281L122.194 31.9676M116.653 29.9281L121.028 28.0827L126.083 29.9281M122.194 31.9676L126.083 29.9281M122.194 31.9676L121.319 44.3022M126.083 29.9281L124.722 42.554L121.319 44.3022M91.9583 122L135.125 84.8022L140.569 51.1193M91.9583 122L92.1581 109.957M91.9583 122L74.2639 109.571M92.6389 80.9804L92.1581 109.957M140.569 51.1193L136.292 53.8869M56.6647 86.6475L58.2222 98.3022L62.6944 101.444M56.6647 86.6475L83.7917 104.462M92.1581 109.957L132.694 76.9353L136.292 53.8869M92.1581 109.957L91.9583 109.826M83.7917 104.462V93.446L90.5972 97.1367V108.932M83.7917 104.462L90.5972 108.932M83.7917 104.462L82.8194 103.824L69.7917 106.429M90.5972 108.932L91.9583 109.826M62.6944 101.444L62.2083 93.446L66.5833 96.0683V104.175M62.6944 101.444L66.5833 104.175M66.5833 104.175L69.7917 106.429M69.7917 106.429L66.5833 108.932L68.3333 110.734L74.2639 109.571M74.2639 109.571L80.4861 108.597L87.5833 113.162L91.9583 109.826M62.2083 52.5576L62.6944 60.813L67.0694 63.0468L66.6806 54.5L62.2083 52.5576ZM73.7778 57.9964V66.0576L78.3472 68.5827V60.3273L73.7778 57.9964ZM67.0694 71.0108L67.2639 78.0036L71.25 80.1403V73.1475L67.0694 71.0108ZM77.7639 76.9353V84.0252L82.2361 86.6475V79.1691L77.7639 76.9353ZM119.181 66.0576L118.694 73.0504L122.292 70.6223L122.875 63.7266L119.181 66.0576ZM127.833 60.3273L127.25 66.9317L129.778 65.1835L130.556 58.482L127.833 60.3273Z" stroke="#4A594A"/>
</svg>
