<svg width="195" height="136" viewBox="0 0 195 136" fill="none" xmlns="http://www.w3.org/2000/svg">
<path d="M64.9396 30.0113L49 57.9057L52.9849 60.2497M64.9396 30.0113L92.1094 83.2641M64.9396 30.0113L80.517 24.4685M92.1094 83.2641L89.5736 81.7725M92.1094 83.2641L140.291 54.8835M80.517 24.4685V18.4189M80.517 24.4685L83.4151 23.4372M80.517 18.4189L83.4151 16.6075L87.0377 18.4189M80.517 18.4189L83.4151 19.6755M87.0377 18.4189V22.1482M87.0377 18.4189L83.4151 19.6755M87.0377 22.1482L123.989 9L145 52.1094L140.291 54.8835M87.0377 22.1482L83.4151 23.4372M89.5736 81.7725V97.0302M89.5736 81.7725L52.9849 60.2497M89.5736 97.0302L54.0717 74.9321M89.5736 97.0302V126.736M89.5736 97.0302L138.842 65.8755M54.0717 74.9321L52.9849 60.2497M54.0717 74.9321L58.0566 103.551L89.5736 126.736M89.5736 126.736L135.943 92.3207L138.842 65.8755M140.291 54.8835L138.842 65.8755M83.4151 19.6755V23.4372M81.2415 97.0302V102.464L84.5019 104.638V98.8415L81.2415 97.0302Z" stroke="#4A594A"/>
<path d="M60.5927 88.3374L60.2305 82.9035L63.1286 84.3525V89.7865L60.5927 88.3374Z" stroke="#4A594A"/>
<path d="M112.397 93.4091V87.9752L116.744 85.4393V90.511L112.397 93.4091Z" stroke="#4A594A"/>
<path d="M126.163 83.628V78.5563L130.147 75.6582V81.0922L126.163 83.628Z" stroke="#4A594A"/>
<path d="M63.1279 59.7182L62.7656 54.6465L66.3883 56.0955V61.8918L63.1279 59.7182Z" stroke="#4A594A"/>
<path d="M71.46 64.7899V58.6314L75.0826 60.4427L75.4449 66.9635L71.46 64.7899Z" stroke="#4A594A"/>
<path d="M107.688 74.2084V80.7291L112.76 77.5017M131.597 60.0801V65.514L122.541 71.2773M112.76 71.3103V77.5017M112.76 77.5017L117.469 74.5048M117.469 68.4122V74.5048M117.469 74.5048L122.541 71.2773M122.541 65.514V71.2773M59.8691 67.6876L60.5937 73.1216L63.1295 74.5706V69.1367L59.8691 67.6876ZM80.5182 80.0046V85.8008L83.7786 87.6122V81.4537L80.5182 80.0046Z" stroke="#4A594A"/>
<path d="M127.249 62.6172L126.887 68.4134" stroke="#4A594A"/>
</svg>
