<svg width="195" height="136" viewBox="0 0 195 136" fill="none" xmlns="http://www.w3.org/2000/svg">
<path d="M135.108 44.459L153 75.6523L149.704 74.2503L147.468 74.9513M135.108 44.459L61.1866 26L42 55.4409L48.3563 58.7896M135.108 44.459L109.302 85.9332M109.302 85.9332L106.976 89.6718L101.796 86.9432M109.302 85.9332L111.095 86.9032M111.095 86.9032L109.302 110M111.095 86.9032L147.468 74.9513M109.302 110L144.996 96.9152L147.468 74.9513M109.302 110L87.6713 96.1923M48.3563 58.7896V71.096L56.4144 76.2398M48.3563 58.7896L56.4144 63.0348M87.6713 79.5017V96.1923M87.6713 79.5017L81.495 76.2479M87.6713 79.5017L93.9099 82.7884M87.6713 96.1923L81.495 92.2497M81.495 76.2479V92.2497M81.495 76.2479L69.544 69.9518M81.495 92.2497L59.7741 78.3844M59.7741 64.8048V78.3844M59.7741 64.8048L56.4144 63.0348M59.7741 64.8048L64.6591 67.3783M59.7741 78.3844L56.4144 76.2398M56.4144 63.0348V76.2398M69.544 69.9518V75.6523L64.7179 72.7316L64.6591 67.3783M69.544 69.9518L64.6591 67.3783M101.796 86.9432V93.644L93.9099 88.9708V82.7884M101.796 86.9432L93.9099 82.7884M144.986 80.2086L144.28 85.9332L138.639 88.0362L139.346 82.0779L144.986 80.2086ZM129.458 85.4795L128.752 91.4242L121.572 93.644L122.16 86.9432L129.458 85.4795Z" stroke="#4A594A"/>
</svg>
