<svg width="195" height="136" viewBox="0 0 195 136" fill="none" xmlns="http://www.w3.org/2000/svg">
<path d="M138.036 42.4465L60.9091 20L38 61.469L43.2182 64.3282M138.036 42.4465L151.018 64.584M138.036 42.4465L119.616 77.8283M153.055 74.7847H157L151.018 64.584M153.055 74.7847L109.782 96.7164M153.055 74.7847L151.327 88.9881M109.782 116L72.1091 92.9789M109.782 116L132.807 102.431M109.782 116V111.942M109.782 96.7164L108.127 99.8943L99.8545 95.3614M109.782 96.7164L119.616 77.8283M109.782 96.7164V111.942M43.2182 64.3282L54.0328 70.2539M43.2182 64.3282L44.1987 72.6288M72.1091 80.1586L64.8474 76.1797M72.1091 80.1586L93.3636 91.8048M72.1091 80.1586V89.6519M72.1091 92.9789L64.8474 88.5414M72.1091 92.9789V89.6519M64.8474 76.1797V77.8283M64.8474 76.1797L59.4401 73.2168M64.8474 88.5414L44.6182 76.1797L44.1987 72.6288M64.8474 88.5414V85.0568M151.018 64.584L147.2 66.1944M119.616 77.8283V83.0277L126.853 79.6037M119.616 77.8283L126.853 74.7757M143.764 95.8303L151.018 91.5244L151.327 88.9881M143.764 95.8303L132.807 102.431M143.764 95.8303L144.019 92.9789M132.807 102.431L132.973 98.8798M147.2 66.1944V70.2193L140.582 73.2629V68.9856M147.2 66.1944L140.582 68.9856M140.582 68.9856L134.091 71.7232M134.091 71.7232V76.1797L126.853 79.6037M134.091 71.7232L126.853 74.7757M126.853 74.7757V79.6037M126.153 89.6519L132.691 86.325V91.5244L126.153 95.2021M126.153 89.6519L119.616 92.9789V98.8798L126.153 95.2021M126.153 89.6519V95.2021M99.8545 95.3614V97.4848L93.3636 93.9339V91.8048M99.8545 95.3614L93.3636 91.8048M64.8474 77.8283L59.3146 74.7757M64.8474 77.8283V85.0568M54.0328 70.2539V71.8679L59.3146 74.7757M54.0328 70.2539L59.4401 73.2168M59.4401 73.2168L59.3146 74.7757M151.327 88.9881L144.019 92.9789M144.019 92.9789L144.909 83.0277L133.455 88.5414L132.973 98.8798M132.973 98.8798L109.782 111.942M109.782 111.942L72.1091 89.6519M64.8474 85.0568L44.1987 72.6288" stroke="#4A594A"/>
</svg>
