<svg width="195" height="136" viewBox="0 0 195 136" fill="none" xmlns="http://www.w3.org/2000/svg">
<path d="M61.6306 37.7449L43 73.5592H48.0324M61.6306 37.7449L127.159 20L152 63.4966L146.715 66.8508M61.6306 37.7449L82.0317 74.7494M48.0324 73.5592L50.388 91.1959L93.11 115M48.0324 73.5592L93.11 94.844M93.11 115V94.844M93.11 115L110.349 102.838M93.11 94.844L95.5727 99.3109L110.349 89.9326M93.11 94.844L82.4027 75.4225M146.715 66.8508L145.254 78.2118L135.123 85.3597M146.715 66.8508L135.123 74.2084M82.4027 75.4225V80.7005L74.7471 77.4544M82.4027 75.4225L82.0317 74.7494M82.0317 74.7494L74.5615 71.8821M74.5615 71.8821L67.0914 69.0148V74.2084L74.7471 77.4544M74.5615 71.8821L74.7471 77.4544M68.5904 86.381L75.6572 89.5729L76.0855 96.0649L69.0187 92.3861M68.5904 86.381L61.5236 83.1891L61.9519 88.7073L69.0187 92.3861M68.5904 86.381L69.0187 92.3861M110.349 89.9326V102.838M110.349 89.9326L116.88 85.7871M110.349 102.838L116.88 98.23M116.88 85.7871V98.23M116.88 85.7871L129.622 77.7M116.88 98.23L129.622 89.2407M129.622 77.7V89.2407M129.622 77.7L135.123 74.2084M129.622 89.2407L135.123 85.3597M135.123 74.2084V85.3597M53.0648 62.9556L53.6002 68.2574L60.1316 71.287L59.5963 65.6606L53.0648 62.9556Z" stroke="#4A594A"/>
</svg>
