<svg width="195" height="136" viewBox="0 0 195 136" fill="none" xmlns="http://www.w3.org/2000/svg">
<path d="M120.363 41.904L126.165 35.8261M126.165 35.8261L129.204 47.9819L134.729 41.904M126.165 35.8261L148.543 32.7871L150.753 39.5929M134.729 41.904L138.321 55.7175M134.729 41.904L150.753 39.5929M138.321 55.7175L120.916 42.5968M138.321 55.7175L137.768 59.0327M138.321 55.7175L166.224 51.6539M150.753 39.5929L163.461 37.76L166.777 51.5734L166.224 51.6539M120.363 42.1803L120.916 42.5968M120.916 42.5968L120.363 50.7446M166.224 51.6539L162.909 65.9394L141.636 70.0835" stroke="#4A594A" stroke-linecap="round" stroke-linejoin="round"/>
<path d="M102.959 22.8424L83.0679 18.9746L78.9238 30.3016L80.0289 30.5553M102.959 22.8424L99.0915 34.9982M102.959 22.8424L106.827 30.0254L106.397 30.3016M99.0915 34.9982L98.2627 34.722M99.0915 34.9982L106.397 30.3016M95.7762 34.1694L80.0289 30.5553M80.0289 30.5553V38.0372M106.397 30.3016L105.998 43.2863L103.236 44.9439" stroke="#4A594A" stroke-linecap="round" stroke-linejoin="round"/>
<path d="M47.4277 59.0324L50.1904 52.9545L55.9921 45.7715M55.9921 45.7715L64.0039 53.2308L63.2787 55.1646M55.9921 45.7715L51.0192 56.2697M51.0192 56.2697L48.2565 59.8612M51.0192 56.2697L56.8114 61.5188M49.6379 61.5188H56.8114M56.8114 61.5188L58.9453 63.4527M58.9453 63.4527L59.8598 64.2815L63.2787 55.1646M58.9453 63.4527L59.031 67.5968H52.9531H59.3073L63.4513 56.546L63.2787 55.1646" stroke="#4A594A" stroke-linecap="round" stroke-linejoin="round"/>
<path d="M106.827 65.9382L101.025 73.3974L102.13 74.031M106.827 65.9382L127.824 77.2652M106.827 65.9382L105.722 65.3856L114.839 48.5332L137.493 58.7552M127.824 77.2652L121.746 85.277M127.824 77.2652L128.929 80.5804M127.824 77.2652L137.493 58.7552M121.746 85.277L102.13 74.031M121.746 85.277V89.1448M102.13 74.031V77.2652L121.746 89.1448M121.746 89.1448L129.757 83.6194M129.757 83.6194L128.929 80.5804M129.757 83.6194L141.361 89.1448M128.929 80.5804L141.361 86.9346M128.929 80.5804L136.112 70.0822L141.361 72.7068M141.361 86.9346L147.162 75.6076M141.361 86.9346L151.583 78.094M141.361 86.9346V89.1448M147.162 75.6076L151.583 78.094M147.162 75.6076L141.361 72.7068M151.583 78.094V81.4092L141.361 89.1448M137.493 58.7552L142.19 66.767L141.361 67.5958V72.7068" stroke="#4A594A" stroke-linecap="round" stroke-linejoin="round"/>
<path d="M31.9568 69.5294L25.8789 77.5412L27.8128 77.6746M31.9568 69.5294L41.9025 78.6463M31.9568 69.5294L44.6652 55.9922L52.9533 65.1091M41.9025 78.6463L52.9533 65.1091M41.9025 78.6463L27.8128 77.6746M41.9025 78.6463V82.7903M52.9533 65.1091V68.7006L41.9025 82.7903M41.9025 82.7903L27.8128 81.409V77.6746" stroke="#4A594A" stroke-linecap="round" stroke-linejoin="round"/>
<path d="M90.5254 102.684L90.6618 102.573M110.969 86.1074L116.771 96.0531M110.969 86.1074L90.6618 102.573M110.969 86.1074L105.72 89.1464L85 105.723M116.771 96.0531L96.327 112.906M116.771 96.0531V99.0921L96.327 116.221M96.327 112.906L90.6618 102.573M96.327 112.906L85 105.723M96.327 112.906V116.221M90.6618 102.573L85 105.723M85 105.723V109.867L96.327 116.221" stroke="#4A594A" stroke-linecap="round" stroke-linejoin="round"/>
<path d="M76.9886 42.1815L69.5293 51.851L71.1869 52.5575M76.9886 42.1815L86.3817 59.034M76.9886 42.1815L97.4325 33.6172L105.168 49.0883M86.3817 59.034V77.2677M86.3817 59.034L103.51 49.9658M86.3817 59.034L105.168 49.0883M86.3817 59.034L71.1869 52.5575M105.168 49.0883L103.51 49.9658M86.3817 77.2677L103.51 66.4932V49.9658M86.3817 77.2677L72.292 70.9135L71.1869 52.5575" stroke="#4A594A" stroke-linecap="round" stroke-linejoin="round"/>
<path d="M71.7402 58.2039L86.3825 64.8344L103.787 54.8887" stroke="#4A594A" stroke-linecap="round" stroke-linejoin="round"/>
<path d="M66.4917 38.0362L62.3477 43.2853L63.1765 43.5221M66.4917 38.0362L76.4374 32.7871L81.4102 40.2464M66.4917 38.0362L72.0171 46.048M72.0171 46.048L63.1765 43.5221M72.0171 46.048V48.8107L63.1765 46.6006V43.5221M72.0171 46.048L75.6086 44.1141" stroke="#4A594A" stroke-linecap="round" stroke-linejoin="round"/>
</svg>
