<svg width="128" height="128" viewBox="0 0 128 128" fill="none" xmlns="http://www.w3.org/2000/svg">
<path d="M97.8973 22.1055L96.2983 23.7045L96.9379 28.1816C96.9379 28.3948 96.81 28.9491 96.2983 29.4608C95.7866 29.9725 93.9531 29.674 93.1003 29.4608L90.5419 28.8212L89.9023 30.1004L93.1003 34.2578L95.0191 33.6182V31.6994H97.8973V34.2578H96.2983L95.6587 35.5369L100.136 40.3339L101.735 39.3745L100.456 38.0953L101.095 33.6182C101.202 33.1918 101.607 32.339 102.374 32.339C103.142 32.339 106.105 33.1918 107.491 33.6182L108.131 32.339L103.334 28.1816L102.055 28.8212L102.374 30.1004L100.136 30.4202L99.4963 30.1004V26.9024L100.136 28.1816C100.669 27.8618 101.799 27.0943 102.055 26.5826C102.31 26.071 99.3897 23.3847 97.8973 22.1055Z" stroke="#4A594A" stroke-width="0.8"/>
<path d="M83.1888 12.5117C82.5492 13.0447 81.4619 14.1747 82.2294 14.4305C83.1888 14.7503 84.149 14.4305 84.149 15.7097C84.149 16.9889 82.2303 21.1462 81.5907 21.1462C81.079 21.1462 80.0983 21.5726 79.6719 21.7858V22.4254L88.3064 27.5422L92.144 25.6234L88.3064 24.3442L87.0272 25.3036L84.149 24.3442L86.0678 21.1462L87.6668 21.7858L88.3064 20.5066L86.3876 19.867L87.6668 17.9483L89.9054 18.9077C90.4384 19.2275 91.6323 19.6752 92.144 18.9077C92.7835 17.9483 93.7429 17.6285 92.4638 16.9889C91.1846 16.3493 87.6668 14.4305 86.7074 14.1107C85.9399 13.8549 84.2556 12.9381 83.5094 12.5117" stroke="#4A594A" stroke-width="0.8"/>
<path d="M31.7019 108.13C31.446 107.618 34.3668 105.145 35.8592 103.973C36.1786 104.292 36.9453 104.868 37.457 104.612C38.0966 104.293 38.7362 103.013 38.7362 102.374C38.7362 101.734 32.66 97.5768 32.0204 97.257C31.3808 96.9372 30.7417 98.2164 30.7417 98.856C30.7417 99.3677 32.2341 100.135 32.9803 100.455L31.7019 101.734C29.996 101.201 26.2006 100.455 24.6656 101.734C22.7468 103.333 24.026 104.932 24.026 106.211C24.026 107.49 30.1021 111.968 30.7417 111.968C31.3813 111.968 32.3407 111.968 32.9803 111.328C33.6199 110.688 32.9803 110.369 32.9803 110.049C32.9803 109.729 32.0217 108.77 31.7019 108.13Z" stroke="#4A594A" stroke-width="0.8"/>
<path d="M15.391 96.2977C14.6235 96.5536 12.726 92.9932 11.8732 91.181L13.4722 90.5414L14.7514 91.5008L20.8275 87.0236L19.8682 85.4246L21.7869 84.4652L25.3047 88.9424L24.026 90.2216L23.0661 89.582L20.8275 91.5008L22.7463 94.0591L24.9849 92.4602L24.026 90.5414L26.2641 90.2216L29.7819 95.3383L28.5027 96.9373L26.2641 95.3383L20.8275 99.4957L21.7869 101.414C21.3605 101.521 20.3798 101.862 19.8682 102.374C19.2286 103.014 16.6702 97.257 16.6702 96.9373C16.6702 96.6816 17.3098 96.4044 17.6296 96.2977C17.8428 96.6175 18.3971 97.257 18.9088 97.257C19.4204 97.257 20.6143 95.9779 21.1473 95.3383L19.2286 92.4602L16.3504 94.0591L17.6296 95.3383C17.2032 95.5515 16.1585 96.0419 15.391 96.2977Z" stroke="#4A594A" stroke-width="0.8"/>
<path d="M9.31485 86.0642C7.26815 85.2967 7.18288 81.0541 7.39607 79.0287L10.9141 79.6686L11.8732 80.9478C11.2337 80.7345 9.95473 80.6279 9.95473 81.9072C9.95473 83.5064 11.5537 83.1862 12.5131 83.1862C13.2806 83.1862 12.4063 81.2674 11.8732 80.308C11.9799 78.6024 13.0887 75.3192 16.6702 75.8309C20.2517 76.3425 20.9341 81.374 20.8275 83.8258L16.6702 83.1862C16.3505 82.6076 15.9029 81.4778 16.6702 81.5872C17.6293 81.7239 17.9497 80.3079 18.2695 79.9881C18.5892 79.6683 16.3504 78.3891 15.391 79.0287C14.6235 79.5404 15.7108 81.5871 16.3504 82.5465C16.2439 83.186 15.9029 84.6571 15.391 85.4246C14.7511 86.384 11.8732 87.0236 9.31485 86.0642Z" stroke="#4A594A" stroke-width="0.8"/>
<path d="M72.9521 10.9133C73.9115 11.2331 75.7024 12.1286 75.1907 13.1519C74.5511 14.4311 72.6323 14.4311 72.3125 14.4311C71.9927 14.4311 72.9521 12.1925 72.9521 11.5529C73.0587 11.3397 73.208 10.8494 72.9521 10.5935M67.8339 8.35495C67.7273 8.99455 67.5781 10.2737 67.8339 10.2737C68.1537 10.2737 69.1143 10.2737 69.1143 10.5935C69.1143 10.9133 69.1143 16.6697 68.1549 17.3093C67.3874 17.8209 66.5559 17.7357 66.2361 17.6291C65.9163 18.2687 65.4046 19.5478 65.9163 19.5478C66.5559 19.5478 71.9927 21.4666 72.3125 21.4666C72.6323 21.4666 72.9521 19.5478 72.6323 19.5478C72.3765 19.5478 71.4597 19.3346 71.0333 19.2281C70.8201 18.0555 70.5856 15.7103 71.3531 15.7103C72.1206 15.7103 74.4445 19.761 75.5105 21.7864C76.2567 21.893 77.9409 22.0423 78.7085 21.7864C79.476 21.5306 76.8963 17.6291 75.5105 15.7103C76.3633 15.6037 78.0689 14.8149 78.0689 12.5123C78.0689 9.63414 76.1501 9.31434 74.2313 8.99455C72.3125 8.67475 69.4346 8.03516 68.7948 8.03516C68.2828 8.03516 67.9409 8.24835 67.8339 8.35495Z" stroke="#4A594A" stroke-width="0.8"/>
<path d="M54.7278 8.35345C54.472 9.63264 55.0476 11.2316 55.3674 11.8712C57.285 12.1911 56.9676 10.5919 57.927 9.95234C58.8864 9.31275 58.8864 9.63254 59.8458 9.95234C60.8052 10.2721 55.6884 15.3889 56.0082 17.3077C56.328 19.2265 57.2874 18.9067 58.8864 18.9067C60.4854 18.9067 64.0031 18.2671 64.9625 17.9473C65.9219 17.6275 64.3229 14.1097 64.0031 14.7493C63.6833 15.3889 61.125 16.9879 60.4854 16.6681C59.9737 16.4122 63.4701 10.8052 65.2823 8.03365C65.3889 7.39406 65.4742 6.24279 64.9625 6.75446C64.3229 7.39406 55.0476 6.75446 54.7278 8.35345Z" stroke="#4A594A" stroke-width="0.8"/>
<path d="M39.0555 9.95271L38.7357 13.4705C38.4163 13.5772 37.7134 13.5987 37.4576 12.8312C37.1378 11.8718 36.818 11.8715 35.8576 11.8715C34.8972 11.8715 34.8992 13.151 35.219 14.4302C35.5388 15.7093 36.4982 15.7093 37.7774 15.0697C39.0566 14.4302 40.0159 14.1104 42.2545 15.0697C44.4931 16.0291 43.2139 20.1865 42.5743 21.1459C41.9347 22.1053 40.3357 22.4251 37.7774 22.4251C35.7307 22.4251 36.7114 20.2931 37.4576 19.2271C37.8836 18.7121 38.7357 17.9911 38.7357 19.2271C38.7357 20.4631 39.8024 20.3817 40.3357 20.1865C41.4017 19.8667 43.086 18.9073 41.2951 17.6281C39.0566 16.0291 38.7357 18.9073 35.8576 18.5875C32.9794 18.2677 32.6596 14.4299 33.619 11.8715C34.3865 9.8248 37.5631 9.73952 39.0555 9.95271Z" stroke="#4A594A" stroke-width="0.8"/>
<path d="M41.9336 10.592V8.67322H42.2534C42.6798 8.46002 44.3001 7.84175 47.3701 7.07424C51.2077 6.11485 52.1671 7.39403 53.1265 9.63261C53.894 11.4235 51.3143 13.5768 49.9285 14.4296L50.5681 16.9879C50.9945 16.8813 51.9752 16.6681 52.4869 16.6681C52.9986 16.6681 53.1265 17.9473 53.1265 18.5869L44.8118 20.1859L44.1722 18.2671C44.492 18.2671 45.1955 18.2032 45.4514 17.9473C45.7712 17.6275 44.492 10.9118 44.1722 10.9118C43.8524 10.9118 41.9336 11.2316 41.9336 10.592Z" stroke="#4A594A" stroke-width="0.8"/>
<path d="M61.4435 117.724C62.4668 118.235 62.2963 119.429 62.0831 119.962C62.2959 120.176 62.9133 120.602 63.6808 120.602C64.4483 120.602 65.7062 120.176 66.2392 119.962C66.2392 119.216 66.1752 117.66 65.9194 117.404C65.5996 117.084 67.5184 115.805 67.8382 115.165C68.158 114.526 68.7975 113.566 68.7975 113.247C68.7975 112.927 68.7975 111.648 68.158 111.008C67.6463 110.496 66.4524 110.795 65.9194 111.008L67.1986 105.891C67.5184 104.612 66.2392 105.252 65.2798 105.252C64.3204 105.252 64.6402 106.531 64.3204 106.531C64.0006 106.531 63.361 105.252 62.7214 105.252C62.0818 105.252 62.0831 106.531 61.4435 106.531C60.8039 106.531 61.1224 105.891 60.4828 105.891C59.8432 105.891 60.163 107.17 59.8432 107.49C59.5234 107.81 59.2049 107.17 58.2455 107.17C57.286 107.17 57.6059 109.089 57.6059 110.049C57.6059 110.816 58.6719 111.648 59.2049 111.967C59.3115 112.074 59.4607 112.543 59.2049 113.566C58.8851 114.846 59.2049 114.846 59.5247 116.125C59.8445 117.404 60.1643 117.084 61.4435 117.724Z" stroke="#4A594A" stroke-width="0.8"/>
<path d="M79.0313 108.77L79.9907 111.649L80.9501 111.968L80.6303 115.806H79.9907V118.045L86.0669 117.725V115.806L84.7877 114.847L84.1481 111.009L84.7877 110.689V108.131C83.1887 108.237 79.7989 108.451 79.0313 108.451M69.1166 108.77C69.2232 109.73 69.3724 111.649 69.1166 111.649C68.7968 111.649 72.6343 111.649 72.9541 111.649C73.2739 111.649 70.077 118.044 70.077 119.004C70.077 119.771 70.7166 119.537 71.0364 119.324C72.8486 116.872 76.473 111.84 76.473 111.329C76.473 110.689 77.1126 108.77 75.5136 108.451C74.2344 108.195 70.7159 108.557 69.1166 108.77Z" stroke="#4A594A" stroke-width="0.8"/>
<path d="M9.63413 40.334L11.8727 43.8518C11.1265 44.0649 9.44213 44.6193 8.67414 45.1309C7.71414 45.7705 8.99393 48.3289 8.99393 48.6487C8.99393 48.9685 12.5117 51.5269 15.3899 51.2071C17.6924 50.9512 17.8416 48.1157 17.6285 46.7299C16.7757 46.6233 15.0061 46.4101 14.7503 46.4101C14.4305 46.4101 12.5117 48.3289 11.8727 47.6893C11.2337 47.0497 13.7909 41.2934 14.1107 40.6538C14.3665 40.1421 14.8569 40.4406 15.0701 40.6538C15.3899 41.1868 16.0934 42.3807 16.3493 42.8924C16.6691 43.532 18.268 42.8924 19.867 42.8924C21.1462 42.8924 21.0396 44.5979 20.8264 45.4507C20.6132 47.3695 19.6112 51.5908 17.3087 53.1259C14.4305 55.0446 10.2737 53.4457 8.35495 52.8061C6.43616 52.1665 6.11637 48.6487 6.43616 45.7705C6.692 43.468 8.67474 41.1868 9.63413 40.334Z" stroke="#4A594A" stroke-width="0.8"/>
<path d="M62.7207 0.5C65.6215 0.5 70.8191 0.820523 75.3896 2.7793C77.6089 3.7304 80.6249 4.7622 83.2344 5.68555C84.533 6.14506 85.7328 6.57848 86.6689 6.95801C87.1365 7.14758 87.547 7.32656 87.875 7.49219C88.1876 7.65009 88.4767 7.82048 88.6582 8.00195C88.7434 8.08708 88.9249 8.22957 89.2129 8.42969C89.4928 8.62415 89.8484 8.85635 90.2607 9.11719C91.0859 9.6391 92.1198 10.2654 93.2021 10.9268C95.345 12.2363 97.706 13.6995 98.8633 14.6914C99.9824 15.6506 100.821 16.4845 101.591 17.1777C102.373 17.8819 103.144 18.4977 104.223 19.1143C105.39 19.7816 106.867 21.0148 108.176 22.125C108.839 22.6877 109.462 23.2215 110 23.6562C110.549 24.0995 110.969 24.4048 111.233 24.5371C111.452 24.6464 111.701 24.8364 111.957 25.0586C112.22 25.2872 112.517 25.5756 112.838 25.9062C113.479 26.5682 114.228 27.418 114.993 28.3438C116.52 30.1925 118.137 32.3731 119.114 34.002C121.016 37.172 124.927 43.0316 125.579 50.2031C125.897 53.7032 126.375 56.8075 126.774 59.3652C127.171 61.9007 127.5 63.9506 127.5 65.2793C127.5 66.5575 127.5 68.6494 127.379 70.7441C127.259 72.8194 127.018 74.9694 126.509 76.3281C125.547 78.893 122.018 87.5561 119.121 92.707C116.239 97.8312 111.727 104.931 106.542 109.468C101.392 113.974 94.6361 118.479 88.1904 121.38C85.0039 122.814 82.5729 123.948 79.8594 124.799C77.136 125.652 74.1383 126.217 69.793 126.539C65.3969 126.865 57.8981 125.729 51.1865 124.331C47.8195 123.63 44.6304 122.858 42.1006 122.16C40.8361 121.811 39.7323 121.48 38.8516 121.185C37.9816 120.893 37.2983 120.626 36.8945 120.401C34.0838 118.84 22.748 114.298 15.3096 104.272C11.623 99.3036 9.76537 96.2396 8.70801 94.125C8.17825 93.0655 7.85138 92.2475 7.59668 91.5547C7.33761 90.85 7.16965 90.3242 6.93652 89.7803C5.98566 87.5616 3.40311 82.0737 2.11133 76.2607C0.830333 70.4963 0.500008 68.2141 0.5 65.2793C0.5 62.4082 0.497202 56.5785 2.12207 51.3789C2.9123 48.8502 3.46662 46.0781 3.9873 43.4746C4.5041 40.8906 4.99104 38.4491 5.64648 36.6465C6.9327 33.1094 8.87283 28.8955 11.1582 25.957C12.2929 24.4981 14.226 22.3516 15.9863 20.4844C16.8684 19.5487 17.7118 18.6788 18.3955 17.9951C19.069 17.3217 19.6113 16.804 19.8809 16.5947C22.304 14.657 26.5585 11.7683 30.8438 9.20508C35.1144 6.65067 39.4924 4.373 42.1328 3.71289C47.2739 2.42763 51.7764 1.78384 53.6846 1.46582C55.5991 1.14674 59.7953 0.500016 62.7207 0.5Z" stroke="#4A594A"/>
<path d="M13.4711 36.4965C12.9594 36.7524 12.6183 35.9636 12.5117 35.5372L16.0295 30.7402L17.3087 31.3798L16.3493 32.3392L19.2275 34.5778L21.466 32.0194L18.9077 29.7808L17.9483 30.7402L16.3493 29.7808L20.1868 24.6641L21.7858 25.9433L21.1462 27.862C22.8518 29.3544 26.3269 32.3392 26.5828 32.3392C26.9026 32.3392 27.862 30.7402 28.1818 30.7402C28.4376 30.7402 29.7808 31.593 30.4203 32.0194L26.263 37.4559L24.664 36.1768L25.6234 34.5778L22.7452 33.2986L20.8264 35.857L23.065 38.0955L24.3442 36.8163C24.664 36.4965 25.3036 37.4559 25.3036 38.0955C25.3036 38.6072 22.9584 41.2935 21.7858 42.5727C21.3594 42.4661 20.4427 42.125 20.1868 41.6133C19.867 40.9737 21.1462 40.3341 20.8264 40.0143C20.5066 39.6945 15.7097 35.5372 15.0701 35.5372C14.4305 35.5372 14.1107 36.1768 13.4711 36.4965Z" stroke="#4A594A" stroke-width="0.8"/>
<path d="M27.8623 16.6699C27.6065 16.6699 24.1314 20.0811 22.4258 21.7867L23.705 22.7461H25.9435C26.5831 22.7461 29.1415 26.9034 29.1415 27.2232C29.1415 27.4791 28.7151 28.609 28.5019 29.142L29.7811 30.1014L35.5375 25.3044C35.4309 25.0912 34.9618 24.6648 33.9385 24.6648C32.9151 24.6648 30.3141 21.2537 29.1415 19.5481C29.3547 19.1217 29.7811 18.2049 29.7811 17.9491C29.7811 17.6293 28.1821 16.6699 27.8623 16.6699Z" stroke="#4A594A" stroke-width="0.8"/>
<path d="M38.7362 107.811V105.572L44.8124 106.532L44.4926 108.45L43.5332 109.41V113.567L44.4926 114.207V116.126L37.457 114.846V112.928L38.7362 112.288L39.6956 108.131L38.7362 107.811Z" stroke="#4A594A" stroke-width="0.8"/>
<path d="M46.73 109.411L46.4102 106.533C53.7655 106.533 53.7655 103.654 53.7655 104.614C53.7655 105.381 55.0447 107.492 55.6843 108.451H51.5269L50.8873 109.091C51.9533 109.411 54.3411 110.498 55.3645 112.289C56.6437 114.527 52.8061 117.725 52.4863 118.365C52.2305 118.877 48.9685 118.791 47.3695 118.685L48.3289 117.406C48.6487 117.086 49.4802 116.318 50.2477 115.807C51.2071 115.167 50.8873 112.289 50.2477 111.649C49.736 111.138 47.4761 110.37 46.4102 110.05L46.73 109.411Z" stroke="#4A594A" stroke-width="0.8"/>
<circle cx="19.5516" cy="57.6043" r="1.51878" stroke="#4A594A" stroke-width="0.8"/>
<circle cx="5.47738" cy="55.6844" r="1.51878" stroke="#4A594A" stroke-width="0.8"/>
<circle cx="11.2362" cy="38.4159" r="0.879188" stroke="#4A594A" stroke-width="0.8"/>
<circle cx="20.8261" cy="72.953" r="0.879188" stroke="#4A594A" stroke-width="0.8"/>
<circle cx="105.251" cy="36.1752" r="1.19898" stroke="#4A594A" stroke-width="0.8"/>
<path d="M15.07 71.3549C14.8141 71.3549 10.4862 71.9945 8.35422 72.3143C8.24762 72.6341 8.09838 73.3377 8.35422 73.5936C8.67402 73.9136 7.71463 74.553 7.39483 74.8728C7.07503 75.1926 6.43544 74.553 6.11564 74.2332C5.79584 73.9134 5.15625 68.1571 5.15625 65.5987C5.15625 63.0403 6.11564 59.8422 10.5928 59.5224C15.07 59.2026 16.9887 62.7204 17.3085 63.6798C17.5644 64.4473 18.0547 70.3955 18.2679 73.2737C18.1613 73.3803 17.8202 73.5295 17.3085 73.2737C16.6689 72.9539 15.3898 71.3549 15.07 71.3549Z" stroke="#4A594A" stroke-width="0.8"/>
<path d="M83.8281 104.615H86.7063L96.62 109.092L94.0616 99.1783M94.0616 99.1783H92.4626V101.097L89.9043 102.056L88.6251 101.097V99.1783L84.7875 100.138M94.0616 99.1783L96.62 98.2189H99.818C100.564 99.9245 102.44 102.888 103.975 101.097C105.51 99.3062 107.813 96.3001 108.772 95.0209L107.813 94.0615L106.534 94.7011C104.615 93.3153 100.777 90.4158 100.777 89.9042C100.777 89.3925 100.777 88.625 100.777 88.3052M89.9043 96.9397L93.422 94.0615L100.777 95.0209L102.057 94.0615L99.1784 91.8229L96.62 93.1021L95.3408 91.8229M102.057 88.3052C102.376 89.0514 103.272 90.5438 104.295 90.5438C105.318 90.5438 106.854 90.5438 107.493 90.5438C107.706 91.1833 108.389 92.4625 109.412 92.4625C110.691 92.4625 112.29 92.4625 112.29 91.8229C112.29 91.3113 113.782 87.1326 114.529 85.1072V84.4676L112.29 85.7468C111.117 85.2138 108.516 84.0199 107.493 83.5082C106.47 82.9965 105.788 82.6554 105.574 82.5488M108.772 87.6656C108.559 87.9854 108.197 88.7529 108.452 89.2646C108.708 89.7762 109.199 90.3306 109.412 90.5438H111.011C111.437 90.4372 112.29 90.0321 112.29 89.2646C112.29 88.4971 110.798 87.8788 110.051 87.6656H108.772ZM103.336 86.0666V87.6656L104.615 88.3052H106.534L107.493 87.6656V86.0666L105.574 85.7468H104.295L103.336 86.0666Z" stroke="#4A594A" stroke-width="0.8"/>
<path d="M116.446 76.7907L115.486 81.2678L110.689 76.7907L105.892 80.6282L104.613 79.6688L105.253 73.9125H106.532V74.5521L109.41 73.9125L107.172 71.0343M113.887 75.8313L112.608 74.5521L114.527 73.5927M108.131 66.877L111.329 71.0343L114.527 68.4759" stroke="#4A594A" stroke-width="0.8"/>
<path d="M112.292 40.0148L110.373 35.8574L108.774 36.8168C109.094 37.563 109.541 39.2473 108.774 40.0148C108.006 40.7823 103.764 42.2534 101.738 42.893L103.337 47.3701H104.616L110.373 44.1721" stroke="#4A594A" stroke-width="0.8"/>
<path d="M83.0234 63.3766C82.2346 63.1794 80.5978 62.9033 80.3611 63.3766C80.1245 63.8499 80.2625 65.5457 80.3611 66.3344C80.558 66.8275 80.8336 67.8726 80.3611 68.1093" stroke="#4A594A" stroke-width="0.8"/>
<path d="M55.5139 53.6134C54.5279 52.9232 52.2601 51.6019 51.0768 51.8386C49.5978 52.1344 48.1188 54.2047 49.0062 55.6838C49.8936 57.1628 50.4854 58.0502 52.2602 58.0502C54.0351 58.0502 53.7393 59.8251 54.9225 59.8251C55.8691 59.8251 56.5001 60.0223 56.6973 60.1209L57.2889 59.8251" stroke="#4A594A" stroke-width="0.8"/>
<path d="M83.0275 58.3456C83.9149 58.0498 84.2107 57.1624 83.6191 55.6833C83.1458 54.5001 79.8722 50.8518 78.2946 49.1756V43.8511C78.2946 43.6539 78.1171 43.0228 77.4072 42.0762C76.5197 40.893 76.5197 39.7098 76.2239 39.414C75.9281 39.1182 76.5197 38.8224 76.5197 37.6391C76.5197 36.4559 76.2239 34.9769 75.6323 33.4979C75.2379 32.1174 74.2716 29.3566 73.5617 29.3566C72.6743 29.3566 74.4491 28.1733 72.9701 27.2859C71.7868 26.576 69.9134 25.4124 69.1246 24.9193C65.5749 23.7361 47.2341 19.299 37.4725 30.2438C29.6632 38.9997 36.5851 54.007 41.0222 60.4161V61.3037M83.0275 58.3456C82.479 58.5284 81.8176 58.8242 81.3923 59.233M83.0275 58.3456C83.1261 57.9512 83.0866 57.1624 82.1401 57.1624C81.1935 57.1624 80.7596 57.754 80.661 58.0498M66.7581 69.5862C69.1246 69.5862 74.4491 72.8401 76.2239 72.8401C77.9988 72.8401 81.5485 75.2066 85.0981 75.2066C88.6478 75.2066 89.2394 72.2485 89.5352 71.6569C89.831 71.0653 87.7604 70.4737 87.1688 70.4737C86.5772 70.4737 86.5772 69.5862 86.5772 68.9946C86.5772 68.403 85.6897 68.1072 85.6897 67.8114C85.6897 67.5156 85.9855 65.7408 85.6897 65.1491C85.4531 64.6759 84.2107 63.9659 83.6191 63.6701C83.6191 63.2757 83.5599 62.2502 83.3233 61.3037C83.0275 60.1204 80.9568 61.0079 80.9568 60.1204C80.9568 59.7815 81.1295 59.4857 81.3923 59.233M66.7581 69.5862C64.3917 69.5862 76.5197 75.7982 76.5197 76.6856C76.5197 77.573 75.6323 80.2353 75.6323 79.9395C75.6323 79.6437 74.7449 81.1227 75.6323 81.7143C76.5197 82.3059 81.5485 83.785 83.0275 83.785C84.5065 83.785 86.5772 85.5598 86.5772 86.4472C86.5772 87.3346 88.0562 90.2927 87.1688 91.4759C86.2814 92.6591 82.7317 97.392 82.1401 97.6879C81.5485 97.9837 81.8443 101.238 79.7736 101.238C77.703 101.238 73.5617 100.35 71.1952 100.35C68.8288 100.35 67.0539 100.35 65.2791 100.35C63.5043 100.35 53.7426 96.8004 49.8972 94.7298C46.0517 92.6591 41.6146 88.8137 38.6565 88.5179C35.6984 88.222 30.0781 84.6724 30.0781 83.785C30.0781 82.8975 34.2194 79.6437 35.4026 79.3479C36.5859 79.052 36.5859 78.1646 37.1775 76.6856C37.7691 75.2066 39.8405 74.0233 40.4314 73.4317C41.0222 72.8401 42.2062 71.9527 41.9104 69.882C41.6146 67.8114 42.2062 65.7408 41.3188 65.445C40.4314 65.1491 39.8397 63.0785 39.5439 62.4869C39.2481 61.8953 39.2481 61.3037 39.8397 61.3037C40.313 61.3037 40.8252 61.3037 41.0222 61.3037M66.7581 69.5862C59.8555 66.8254 45.0445 61.3037 41.0222 61.3037M81.3923 59.233C80.0639 59.0358 77.4072 58.4639 77.4072 57.754C77.4072 56.8666 77.4072 56.275 78.2946 56.275" stroke="#4A594A" stroke-width="0.8"/>
<path d="M70.8984 52.4299C71.5887 51.9369 73.0874 50.7734 73.5607 50.0634C74.1523 49.176 75.0397 48.2886 75.0397 47.697C75.0397 47.1054 74.4481 49.176 74.7439 49.7676C75.0397 50.3592 75.3355 50.3592 75.6313 51.2466C75.9271 52.134 75.0397 52.7257 74.1523 52.7257C73.4424 52.7257 72.4761 52.5285 72.0817 52.4299" stroke="#4A594A" stroke-width="0.8"/>
<path d="M70.6016 42.0767C71.2918 41.6823 72.9089 41.0118 73.8554 41.4851C75.0387 42.0767 75.9084 42.7647 76.5 43.0605" stroke="#4A594A" stroke-width="0.8"/>
<path d="M46.6445 70.4746C48.7152 72.6439 54.0397 77.1598 58.7726 77.8698C63.5055 78.5797 70.4076 79.546 73.2671 79.9404C76.9154 83.8845 84.5078 91.7727 85.691 91.7727M50.7858 77.8698C53.9411 79.4474 61.0799 82.6027 64.3929 82.6027C67.7059 82.6027 70.9007 82.6027 72.0839 82.6027M70.6049 85.5607C69.5202 85.5607 66.7594 85.5607 64.3929 85.5607C62.0265 85.5607 56.5047 83.5887 54.0397 82.6027C57.8852 87.8286 65.6353 98.4579 65.8719 99.1678" stroke="#4A594A" stroke-width="0.8"/>
</svg>
