<svg width="450" height="179" viewBox="0 0 450 179" fill="none" xmlns="http://www.w3.org/2000/svg">
<path d="M166.826 71.9231L183.819 42.3077L200.427 36.4228V30L203.517 28.0769L207.379 30V33.9594L246.774 20L269.174 65.7692L264.154 68.7144L262.609 80.3846L259.519 108.462L210.082 145L176.481 120.385L172.233 90L171.074 74.4118L166.826 71.9231Z" fill="white" fill-opacity="0.25"/>
<path d="M183.819 42.3077L166.826 71.9231L171.074 74.4118M183.819 42.3077L212.786 98.8462M183.819 42.3077L200.427 36.4228M212.786 98.8462L210.082 97.2625M212.786 98.8462L264.154 68.7144M200.427 36.4228V30L203.517 28.0769L207.379 30V33.9594M200.427 36.4228L207.379 33.9594M207.379 33.9594L246.774 20L269.174 65.7692L264.154 68.7144M210.082 97.2625V113.462M210.082 97.2625L171.074 74.4118M210.082 113.462L172.233 90M210.082 113.462V145M210.082 113.462L262.609 80.3846M172.233 90L171.074 74.4118M172.233 90L176.481 120.385L210.082 145M210.082 145L259.519 108.462L262.609 80.3846M264.154 68.7144L262.609 80.3846M201.199 113.462V119.231L204.675 121.538V115.385L201.199 113.462Z" stroke="#151515" stroke-linecap="round" stroke-linejoin="round"/>
<path d="M179.792 104.252L179.409 98.3454L182.47 99.9205V105.827L179.792 104.252Z" stroke="#151515" stroke-linecap="round" stroke-linejoin="round"/>
<path d="M234.492 109.765V103.858L239.082 101.102V106.615L234.492 109.765Z" stroke="#151515" stroke-linecap="round" stroke-linejoin="round"/>
<path d="M249.027 99.1329V93.62L253.235 90.4697V96.3765L249.027 99.1329Z" stroke="#151515" stroke-linecap="round" stroke-linejoin="round"/>
<path d="M182.31 73.8393L181.926 68.6577L185.761 70.1382V76.06L182.31 73.8393Z" stroke="#151515" stroke-linecap="round" stroke-linejoin="round"/>
<path d="M191.13 79.0209V72.729L194.965 74.5795L195.349 81.2416L191.13 79.0209Z" stroke="#151515" stroke-linecap="round" stroke-linejoin="round"/>
<path d="M229.465 88.759V95.7132L234.863 92.2712M254.913 73.6914V79.4866L245.274 85.6331M234.863 85.6682V92.2712M234.863 92.2712L239.876 89.0751M239.876 82.5774V89.0751M239.876 89.0751L245.274 85.6331M245.274 79.4866V85.6331M178.57 81.8047L178.99 87.7434L182.041 89.1453V83.3501L178.57 81.8047ZM200.548 94.9405V101.122L204.018 103.054V96.4859L200.548 94.9405Z" stroke="#151515" stroke-linecap="round" stroke-linejoin="round"/>
<path d="M249.879 76.8374V82.7099" stroke="#151515" stroke-linecap="round" stroke-linejoin="round"/>
<path d="M287.35 97.135C287.093 97.0335 286.802 97.1595 286.701 97.4163L285.048 101.602C284.946 101.859 285.072 102.149 285.329 102.25C285.586 102.352 285.876 102.226 285.978 101.969L287.447 98.2487L291.168 99.7181C291.424 99.8196 291.715 99.6936 291.816 99.4368C291.918 99.1799 291.792 98.8895 291.535 98.7881L287.35 97.135ZM260.6 149.904L260.824 150.351V150.351L260.6 149.904ZM155 140.401L155.328 140.024V140.024L155 140.401ZM287.166 97.6L286.707 97.799C288.528 101.996 289.5 106.421 289.5 110.991H290H290.5C290.5 106.276 289.496 101.716 287.625 97.401L287.166 97.6ZM140 110.991H140.5C140.5 105.112 142.109 99.4719 145.065 94.2462L144.63 94L144.195 93.7538C141.162 99.1153 139.5 104.923 139.5 110.991H140ZM290 110.991H289.5C289.5 126.584 278.161 140.545 260.376 149.457L260.6 149.904L260.824 150.351C278.789 141.348 290.5 127.112 290.5 110.991H290ZM260.6 149.904L260.376 149.457C247.816 155.752 232.084 159.5 215 159.5V160V160.5C232.225 160.5 248.112 156.722 260.824 150.351L260.6 149.904ZM215 160V159.5C190.56 159.5 168.902 151.83 155.328 140.024L155 140.401L154.672 140.779C168.465 152.775 190.372 160.5 215 160.5V160ZM155 140.401L155.328 140.024C145.988 131.901 140.5 121.846 140.5 110.991H140H139.5C139.5 122.207 145.174 132.518 154.672 140.779L155 140.401Z" fill="#151515"/>
</svg>
