<svg width="153" height="141" viewBox="0 0 153 141" fill="none" xmlns="http://www.w3.org/2000/svg">
<path d="M27.3255 52.4231L44.3193 22.8077L60.9269 16.9228V10.5L64.0166 8.57692L67.8789 10.5V14.4594L107.274 0.5L129.674 46.2692L124.654 49.2144L123.109 60.8846L120.019 88.9615L70.5824 125.5L36.9811 100.885L32.7326 70.5L31.5739 54.9118L27.3255 52.4231Z" fill="white" fill-opacity="0.25"/>
<path d="M44.3193 22.8077L27.3255 52.4231L31.5739 54.9118M44.3193 22.8077L73.286 79.3462M44.3193 22.8077L60.9269 16.9228M73.286 79.3462L70.5824 77.7625M73.286 79.3462L124.654 49.2144M60.9269 16.9228V10.5L64.0166 8.57692L67.8789 10.5V14.4594M60.9269 16.9228L67.8789 14.4594M67.8789 14.4594L107.274 0.5L129.674 46.2692L124.654 49.2144M70.5824 77.7625V93.9615M70.5824 77.7625L31.5739 54.9118M70.5824 93.9615L32.7326 70.5M70.5824 93.9615V125.5M70.5824 93.9615L123.109 60.8846M32.7326 70.5L31.5739 54.9118M32.7326 70.5L36.9811 100.885L70.5824 125.5M70.5824 125.5L120.019 88.9615L123.109 60.8846M124.654 49.2144L123.109 60.8846M61.6993 93.9615V99.7308L65.1753 102.038V95.8846L61.6993 93.9615Z" stroke="#151515" stroke-linecap="round" stroke-linejoin="round"/>
<path d="M40.2919 84.7521L39.9094 78.8454L42.9695 80.4205V86.3272L40.2919 84.7521Z" stroke="#151515" stroke-linecap="round" stroke-linejoin="round"/>
<path d="M94.9916 90.265V84.3583L99.5818 81.6018V87.1148L94.9916 90.265Z" stroke="#151515" stroke-linecap="round" stroke-linejoin="round"/>
<path d="M109.527 79.6329V74.12L113.735 70.9697V76.8765L109.527 79.6329Z" stroke="#151515" stroke-linecap="round" stroke-linejoin="round"/>
<path d="M42.8097 54.3393L42.4262 49.1577L46.2613 50.6382V56.56L42.8097 54.3393Z" stroke="#151515" stroke-linecap="round" stroke-linejoin="round"/>
<path d="M51.6304 59.5209V53.229L55.4655 55.0795L55.849 61.7416L51.6304 59.5209Z" stroke="#151515" stroke-linecap="round" stroke-linejoin="round"/>
<path d="M89.9653 69.259V76.2132L95.3633 72.7712M115.413 54.1914V59.9866L105.774 66.1331M95.3633 66.1682V72.7712M95.3633 72.7712L100.376 69.5751M100.376 63.0774V69.5751M100.376 69.5751L105.774 66.1331M105.774 59.9866V66.1331M39.0705 62.3047L39.4899 68.2434L42.5406 69.6453V63.8501L39.0705 62.3047ZM61.0478 75.4405V81.6221L64.5179 83.5538V76.9859L61.0478 75.4405Z" stroke="#151515" stroke-linecap="round" stroke-linejoin="round"/>
<path d="M110.379 57.3374V63.2099" stroke="#151515" stroke-linecap="round" stroke-linejoin="round"/>
<path d="M147.85 77.635C147.593 77.5335 147.302 77.6595 147.201 77.9163L145.548 82.1017C145.446 82.3585 145.572 82.649 145.829 82.7504C146.086 82.8518 146.376 82.7259 146.478 82.469L147.947 78.7487L151.668 80.2181C151.924 80.3196 152.215 80.1936 152.316 79.9368C152.418 79.6799 152.292 79.3895 152.035 79.2881L147.85 77.635ZM121.1 130.404L121.324 130.851V130.851L121.1 130.404ZM15.5 120.901L15.8281 120.524V120.524L15.5 120.901ZM147.666 78.1L147.207 78.299C149.028 82.4963 150 86.9208 150 91.4911H150.5H151C151 86.7759 149.996 82.2164 148.125 77.901L147.666 78.1ZM0.5 91.4911H1C1 85.6117 2.60914 79.9719 5.56515 74.7462L5.12995 74.5L4.69475 74.2538C1.66193 79.6153 0 85.4234 0 91.4911H0.5ZM150.5 91.4911H150C150 107.084 138.661 121.045 120.876 129.957L121.1 130.404L121.324 130.851C139.289 121.848 151 107.612 151 91.4911H150.5ZM121.1 130.404L120.876 129.957C108.316 136.252 92.584 140 75.5 140V140.5V141C92.7251 141 108.612 137.222 121.324 130.851L121.1 130.404ZM75.5 140.5V140C51.0599 140 29.4023 132.33 15.8281 120.524L15.5 120.901L15.1719 121.279C28.9646 133.275 50.8721 141 75.5 141V140.5ZM15.5 120.901L15.8281 120.524C6.48834 112.401 1 102.346 1 91.4911H0.5H0C0 102.707 5.67434 113.018 15.1719 121.279L15.5 120.901Z" fill="#151515"/>
</svg>
