<svg width="450" height="179" viewBox="0 0 450 179" fill="none" xmlns="http://www.w3.org/2000/svg">
    <path
        d="M365.016 160.596L291.891 157.939V149.346H270.328H240.953H204.078H196.735H182.828V147.783H175.485L176.891 90.892L172.203 91.0645L197.36 52.3145L256.454 57.7832L260.797 52.3145L311.422 57.7832L330.328 78.5578L353.297 76.0401L360.953 31.0645H475.172L495.485 79.3457H492.36V126.775L495.485 132.627H491.891L492.36 155.752H439.547V160.596H365.016Z"
        fill="white" fill-opacity="0.25" />
    <path
        d="M126.891 151.846H45.4846V147.783L12.2034 149.346L-69.8279 147.783V128.096V108.408H-74.9841L-54.9841 62.627L29.2346 59.0332L45.4846 108.408V88.4082V60.752H39.0784L88.9221 0.595703L108.766 8.25195L157.985 67.7832L151.422 65.6587V77.2365V84.8145V94.0332V151.846H126.891Z"
        fill="white" fill-opacity="0.25" />
    <path
        d="M404.391 70.4395L360.953 132.627M404.391 70.4395L369.547 74.2589M404.391 70.4395L410.388 79.3457M360.953 132.627H346.422M360.953 132.627H365.016M291.891 132.627H285.172L291.891 123.199M291.891 132.627V149.346M291.891 132.627H297.672M365.016 160.596L291.891 157.939V149.346M365.016 160.596V132.627M365.016 160.596H439.547V155.752M365.016 132.627H403.766M439.547 132.627H446.266M439.547 132.627V155.752M439.547 132.627H426.11M446.266 132.627L442.057 126.377M446.266 132.627H491.891M413.755 84.3457H469.703M413.755 84.3457L442.057 126.377M413.755 84.3457L410.388 79.3457M469.703 84.3457L442.057 126.377M469.703 84.3457L492.36 126.775M491.891 132.627H495.485L492.36 126.775M491.891 132.627L492.36 155.752H439.547M369.547 74.2589L360.953 31.0645M369.547 74.2589L353.297 76.0401M360.953 31.0645H475.172L495.485 79.3457H492.36M360.953 31.0645L353.297 76.0401M410.388 79.3457H492.36M353.297 76.0401L330.328 78.5578M330.328 78.5578L323.141 79.3457L313.12 93.4082M330.328 78.5578L311.422 57.7832L260.797 52.3145M260.797 52.3145L296.891 93.4082M260.797 52.3145L256.454 57.7832M296.891 93.4082H313.12M296.891 93.4082H291.891M313.12 93.4082L291.891 123.199M230.641 90.2832V95.2624M230.641 90.2832H223.922L223.157 89.1895M230.641 90.2832L256.454 57.7832M291.891 93.4082V123.199M291.891 93.4082L256.891 94.6582M256.891 94.6582L272.672 129.033H270.328M256.891 94.6582L241.941 127.783M256.891 94.6582L230.641 95.2624M240.953 129.971V149.346M240.953 129.971L241.941 127.783M240.953 129.971H204.078M240.953 149.346H270.328M240.953 149.346H204.078M270.328 149.346V129.033M270.328 149.346H291.891M270.328 129.033V127.783H241.941M182.828 129.971H179.547L195.797 96.0645L223.157 95.4347M182.828 129.971V147.783M182.828 129.971H196.735M230.641 95.2624L223.157 95.4347M197.36 52.3145L172.203 91.0645L176.891 90.892M197.36 52.3145L223.157 89.1895M197.36 52.3145L256.454 57.7832M223.157 89.1895L176.891 90.892M223.157 89.1895V95.4347M176.891 90.892L175.485 147.783H182.828M182.828 147.783V149.346H196.735M45.4846 60.752H126.891M45.4846 60.752H39.0784L88.9221 0.595703M45.4846 60.752V88.4082M126.891 60.752H136.266M126.891 60.752V88.4082M126.891 151.846H45.4846V147.783M126.891 151.846H151.422V94.0332M126.891 151.846V88.4082M88.9221 0.595703L136.266 60.752M88.9221 0.595703L108.766 8.25195L157.985 67.7832L151.422 65.6587M136.266 60.752L151.422 65.6587M151.422 65.6587V77.2365M29.2346 60.752L12.2034 108.408M12.2034 108.408H-69.8279M12.2034 108.408V128.877M12.2034 149.346L45.4846 147.783M12.2034 149.346L-69.8279 147.783V128.096M12.2034 149.346V128.877M45.4846 147.783V108.408M45.4846 108.408L29.2346 59.0332L-54.9841 62.627L-74.9841 108.408H-69.8279M45.4846 108.408V88.4082M-69.8279 108.408V128.096M151.422 84.8145L130.797 79.0332V70.252L151.422 77.2365M151.422 84.8145V77.2365M151.422 84.8145V94.0332M45.4846 88.4082H126.891M126.891 88.4082L151.422 94.0332M-69.8279 128.096L12.2034 128.877M196.735 149.346V129.971M196.735 149.346H204.078M196.735 129.971H204.078M204.078 129.971V149.346M403.766 132.627V141.064H415.016M403.766 132.627H415.016M415.016 141.064V132.627M415.016 141.064H426.11V132.627M415.016 132.627H426.11M415.016 117.158H403.766V110.596H415.016M415.016 117.158V110.596M415.016 117.158H426.11V110.596H415.016M338.61 132.627V140.439H332.985V132.627M338.61 132.627H332.985M338.61 132.627H340.953M332.985 132.627H303.297M340.953 132.627V140.439H346.422V132.627M340.953 132.627H346.422M297.672 132.627V140.127H303.297V132.627M297.672 132.627H303.297M492.36 79.3457V126.775M72.8284 100.283V110.283H78.1409V100.283H72.8284ZM-18.2654 114.502V122.627H-10.9216V114.502H-18.2654ZM-8.89038 114.502V122.627H-1.39038V114.502H-8.89038ZM-57.6404 114.502V122.627H-49.6716V114.502H-57.6404ZM-47.9529 114.502V122.627H-41.0779V114.502H-47.9529ZM19.7034 92.7832V103.096H22.5159V92.7832H19.7034ZM32.8284 94.6582V104.033H35.7971V94.6582H32.8284ZM216.11 131.908V138.564H219.547V131.908H216.11ZM188.141 74.6582V84.9707H193.766V74.6582H188.141ZM201.735 74.6582V84.502H207.36V74.6582H201.735ZM184.547 95.2832V105.596H190.172V95.2832H184.547ZM249.078 79.8145V86.5332H254.86V79.502L249.078 79.8145ZM267.047 78.7207V86.0645H272.985V78.7207H267.047ZM267.047 97.3145V104.502H272.985V97.3145H267.047ZM279.86 97.1582V104.502H286.11V97.1582H279.86ZM277.828 114.502V125.439H284.391V114.502H277.828ZM378.766 110.596V117.158H390.641V110.596H378.766Z"
        stroke="#151515" />
</svg>