<svg width="217" height="156" viewBox="0 0 217 156" fill="none" xmlns="http://www.w3.org/2000/svg">
<path d="M73.9938 38.3077L57 67.9231L61.2484 70.4118M73.9938 38.3077L102.96 94.8462M73.9938 38.3077L90.6014 32.4228M102.96 94.8462L100.257 93.2625M102.96 94.8462L154.328 64.7144M90.6014 32.4228V26L93.6911 24.0769L97.5534 26V29.9594M90.6014 32.4228L97.5534 29.9594M97.5534 29.9594L136.948 16L159.349 61.7692L154.328 64.7144M100.257 93.2625V109.462M100.257 93.2625L61.2484 70.4118M100.257 109.462L62.4071 86M100.257 109.462V141M100.257 109.462L152.783 76.3846M62.4071 86L61.2484 70.4118M62.4071 86L66.6556 116.385L100.257 141M100.257 141L149.693 104.462L152.783 76.3846M154.328 64.7144L152.783 76.3846M91.3738 109.462V115.231L94.8498 117.538V111.385L91.3738 109.462Z" stroke="#4A594A" stroke-linecap="round" stroke-linejoin="round"/>
<path d="M69.9685 100.253L69.5859 94.3463L72.6461 95.9215V101.828L69.9685 100.253Z" stroke="#4A594A" stroke-linecap="round" stroke-linejoin="round"/>
<path d="M124.668 105.766V99.8593L129.258 97.1028V102.616L124.668 105.766Z" stroke="#4A594A" stroke-linecap="round" stroke-linejoin="round"/>
<path d="M139.204 95.1339V89.621L143.411 86.4707V92.3774L139.204 95.1339Z" stroke="#4A594A" stroke-linecap="round" stroke-linejoin="round"/>
<path d="M72.4851 69.8398L72.1016 64.6582L75.9367 66.1387V72.0605L72.4851 69.8398Z" stroke="#4A594A" stroke-linecap="round" stroke-linejoin="round"/>
<path d="M81.3058 75.0214V68.7295L85.1409 70.58L85.5244 77.2421L81.3058 75.0214Z" stroke="#4A594A" stroke-linecap="round" stroke-linejoin="round"/>
<path d="M119.637 85.759V91.7132L125.035 88.2712M145.084 70.6914V75.4866L135.445 81.6331M125.035 82.6682V88.2712M125.035 88.2712L130.047 85.0751M130.047 79.5774V85.0751M130.047 85.0751L135.445 81.6331M135.445 76.4866V81.6331M68.7422 77.8047L69.1617 83.7434L72.2123 85.1453V79.3501L68.7422 77.8047ZM90.7195 90.9405V97.1221L94.1896 99.0538V92.4859L90.7195 90.9405Z" stroke="#4A594A" stroke-linecap="round" stroke-linejoin="round"/>
<path d="M140.055 73.8379V78.7104" stroke="#4A594A" stroke-linecap="round" stroke-linejoin="round"/>
</svg>
