<svg width="217" height="156" viewBox="0 0 217 156" fill="none" xmlns="http://www.w3.org/2000/svg">
<path d="M142.897 36.1055L141.298 37.7045L141.938 42.1816C141.938 42.3948 141.81 42.9491 141.298 43.4608C140.787 43.9725 138.953 43.674 138.1 43.4608L135.542 42.8212L134.902 44.1004L138.1 48.2578L140.019 47.6182V45.6994H142.897V48.2578H141.298L140.659 49.5369L145.136 54.3339L146.735 53.3745L145.456 52.0953L146.095 47.6182C146.202 47.1918 146.607 46.339 147.374 46.339C148.142 46.339 151.105 47.1918 152.491 47.6182L153.131 46.339L148.334 42.1816L147.055 42.8212L147.374 44.1004L145.136 44.4202L144.496 44.1004V40.9024L145.136 42.1816C145.669 41.8618 146.799 41.0943 147.055 40.5826C147.31 40.071 144.39 37.3847 142.897 36.1055Z" stroke="#4A594A" stroke-width="0.8"/>
<path d="M128.189 26.5117C127.549 27.0447 126.462 28.1747 127.229 28.4305C128.189 28.7503 129.149 28.4305 129.149 29.7097C129.149 30.9889 127.23 35.1462 126.591 35.1462C126.079 35.1462 125.098 35.5726 124.672 35.7858V36.4254L133.306 41.5422L137.144 39.6234L133.306 38.3442L132.027 39.3036L129.149 38.3442L131.068 35.1462L132.667 35.7858L133.306 34.5066L131.388 33.867L132.667 31.9483L134.905 32.9077C135.438 33.2275 136.632 33.6752 137.144 32.9077C137.784 31.9483 138.743 31.6285 137.464 30.9889C136.185 30.3493 132.667 28.4305 131.707 28.1107C130.94 27.8549 129.256 26.9381 128.509 26.5117" stroke="#4A594A" stroke-width="0.8"/>
<path d="M76.7019 122.13C76.446 121.618 79.3668 119.145 80.8592 117.973C81.1786 118.292 81.9453 118.868 82.457 118.612C83.0966 118.293 83.7362 117.013 83.7362 116.374C83.7362 115.734 77.66 111.577 77.0204 111.257C76.3808 110.937 75.7417 112.216 75.7417 112.856C75.7417 113.368 77.2341 114.135 77.9803 114.455L76.7019 115.734C74.996 115.201 71.2006 114.455 69.6656 115.734C67.7468 117.333 69.026 118.932 69.026 120.211C69.026 121.49 75.1021 125.968 75.7417 125.968C76.3813 125.968 77.3407 125.968 77.9803 125.328C78.6199 124.688 77.9803 124.369 77.9803 124.049C77.9803 123.729 77.0217 122.77 76.7019 122.13Z" stroke="#4A594A" stroke-width="0.8"/>
<path d="M60.391 110.298C59.6235 110.554 57.726 106.993 56.8732 105.181L58.4722 104.541L59.7514 105.501L65.8275 101.024L64.8682 99.4246L66.7869 98.4652L70.3047 102.942L69.026 104.222L68.0661 103.582L65.8275 105.501L67.7463 108.059L69.9849 106.46L69.026 104.541L71.2641 104.222L74.7819 109.338L73.5027 110.937L71.2641 109.338L65.8275 113.496L66.7869 115.414C66.3605 115.521 65.3798 115.862 64.8682 116.374C64.2286 117.014 61.6702 111.257 61.6702 110.937C61.6702 110.682 62.3098 110.404 62.6296 110.298C62.8428 110.617 63.3971 111.257 63.9088 111.257C64.4204 111.257 65.6143 109.978 66.1473 109.338L64.2286 106.46L61.3504 108.059L62.6296 109.338C62.2032 109.552 61.1585 110.042 60.391 110.298Z" stroke="#4A594A" stroke-width="0.8"/>
<path d="M54.3149 100.064C52.2682 99.2967 52.1829 95.0541 52.3961 93.0287L55.9141 93.6686L56.8732 94.9478C56.2337 94.7345 54.9547 94.6279 54.9547 95.9072C54.9547 97.5064 56.5537 97.1862 57.5131 97.1862C58.2806 97.1862 57.4063 95.2674 56.8732 94.308C56.9799 92.6024 58.0887 89.3192 61.6702 89.8309C65.2517 90.3425 65.9341 95.374 65.8275 97.8258L61.6702 97.1862C61.3505 96.6076 60.9029 95.4778 61.6702 95.5872C62.6293 95.7239 62.9497 94.3079 63.2695 93.9881C63.5892 93.6683 61.3504 92.3891 60.391 93.0287C59.6235 93.5404 60.7108 95.5871 61.3504 96.5465C61.2439 97.186 60.9029 98.6571 60.391 99.4246C59.7511 100.384 56.8732 101.024 54.3149 100.064Z" stroke="#4A594A" stroke-width="0.8"/>
<path d="M117.952 24.9133C118.912 25.2331 120.702 26.1286 120.191 27.1519C119.551 28.4311 117.632 28.4311 117.313 28.4311C116.993 28.4311 117.952 26.1925 117.952 25.5529C118.059 25.3397 118.208 24.8494 117.952 24.5935M112.834 22.355C112.727 22.9945 112.578 24.2737 112.834 24.2737C113.154 24.2737 114.114 24.2737 114.114 24.5935C114.114 24.9133 114.114 30.6697 113.155 31.3093C112.387 31.8209 111.556 31.7357 111.236 31.6291C110.916 32.2687 110.405 33.5478 110.916 33.5478C111.556 33.5478 116.993 35.4666 117.313 35.4666C117.632 35.4666 117.952 33.5478 117.632 33.5478C117.376 33.5478 116.46 33.3346 116.033 33.2281C115.82 32.0555 115.586 29.7103 116.353 29.7103C117.121 29.7103 119.444 33.761 120.51 35.7864C121.257 35.893 122.941 36.0423 123.708 35.7864C124.476 35.5306 121.896 31.6291 120.51 29.7103C121.363 29.6037 123.069 28.8149 123.069 26.5123C123.069 23.6341 121.15 23.3143 119.231 22.9945C117.313 22.6748 114.435 22.0352 113.795 22.0352C113.283 22.0352 112.941 22.2484 112.834 22.355Z" stroke="#4A594A" stroke-width="0.8"/>
<path d="M99.7278 22.3534C99.472 23.6326 100.048 25.2316 100.367 25.8712C102.285 26.1911 101.968 24.5919 102.927 23.9523C103.886 23.3127 103.886 23.6325 104.846 23.9523C105.805 24.2721 100.688 29.3889 101.008 31.3077C101.328 33.2265 102.287 32.9067 103.886 32.9067C105.485 32.9067 109.003 32.2671 109.963 31.9473C110.922 31.6275 109.323 28.1097 109.003 28.7493C108.683 29.3889 106.125 30.9879 105.485 30.6681C104.974 30.4122 108.47 24.8052 110.282 22.0337C110.389 21.3941 110.474 20.2428 109.963 20.7545C109.323 21.3941 100.048 20.7545 99.7278 22.3534Z" stroke="#4A594A" stroke-width="0.8"/>
<path d="M84.0555 23.9527L83.7357 27.4705C83.4163 27.5772 82.7134 27.5987 82.4576 26.8312C82.1378 25.8718 81.818 25.8715 80.8576 25.8715C79.8972 25.8715 79.8992 27.151 80.219 28.4302C80.5388 29.7093 81.4982 29.7093 82.7774 29.0697C84.0566 28.4302 85.0159 28.1104 87.2545 29.0697C89.4931 30.0291 88.2139 34.1865 87.5743 35.1459C86.9347 36.1053 85.3357 36.4251 82.7774 36.4251C80.7307 36.4251 81.7114 34.2931 82.4576 33.2271C82.8836 32.7121 83.7357 31.9911 83.7357 33.2271C83.7357 34.4631 84.8024 34.3817 85.3357 34.1865C86.4017 33.8667 88.086 32.9073 86.2951 31.6281C84.0566 30.0291 83.7357 32.9073 80.8576 32.5875C77.9794 32.2677 77.6596 28.4299 78.619 25.8715C79.3865 23.8248 82.5631 23.7395 84.0555 23.9527Z" stroke="#4A594A" stroke-width="0.8"/>
<path d="M86.9336 24.592V22.6732H87.2534C87.6798 22.46 89.3001 21.8417 92.3701 21.0742C96.2077 20.1148 97.1671 21.394 98.1265 23.6326C98.894 25.4235 96.3143 27.5768 94.9285 28.4296L95.5681 30.9879C95.9945 30.8813 96.9752 30.6681 97.4869 30.6681C97.9986 30.6681 98.1265 31.9473 98.1265 32.5869L89.8118 34.1859L89.1722 32.2671C89.492 32.2671 90.1955 32.2032 90.4514 31.9473C90.7712 31.6275 89.492 24.9118 89.1722 24.9118C88.8524 24.9118 86.9336 25.2316 86.9336 24.592Z" stroke="#4A594A" stroke-width="0.8"/>
<path d="M106.443 131.724C107.467 132.235 107.296 133.429 107.083 133.962C107.296 134.176 107.913 134.602 108.681 134.602C109.448 134.602 110.706 134.176 111.239 133.962C111.239 133.216 111.175 131.66 110.919 131.404C110.6 131.084 112.518 129.805 112.838 129.165C113.158 128.526 113.798 127.566 113.798 127.247C113.798 126.927 113.798 125.648 113.158 125.008C112.646 124.496 111.452 124.795 110.919 125.008L112.199 119.891C112.518 118.612 111.239 119.252 110.28 119.252C109.32 119.252 109.64 120.531 109.32 120.531C109.001 120.531 108.361 119.252 107.721 119.252C107.082 119.252 107.083 120.531 106.443 120.531C105.804 120.531 106.122 119.891 105.483 119.891C104.843 119.891 105.163 121.17 104.843 121.49C104.523 121.81 104.205 121.17 103.245 121.17C102.286 121.17 102.606 123.089 102.606 124.049C102.606 124.816 103.672 125.648 104.205 125.967C104.312 126.074 104.461 126.543 104.205 127.566C103.885 128.846 104.205 128.846 104.525 130.125C104.844 131.404 105.164 131.084 106.443 131.724Z" stroke="#4A594A" stroke-width="0.8"/>
<path d="M124.031 122.77L124.991 125.649L125.95 125.968L125.63 129.806H124.991V132.045L131.067 131.725V129.806L129.788 128.847L129.148 125.009L129.788 124.689V122.131C128.189 122.237 124.799 122.451 124.031 122.451M114.117 122.77C114.223 123.73 114.372 125.649 114.117 125.649C113.797 125.649 117.634 125.649 117.954 125.649C118.274 125.649 115.077 132.044 115.077 133.004C115.077 133.771 115.717 133.537 116.036 133.324C117.849 130.872 121.473 125.84 121.473 125.329C121.473 124.689 122.113 122.77 120.514 122.451C119.234 122.195 115.716 122.557 114.117 122.77Z" stroke="#4A594A" stroke-width="0.8"/>
<path d="M54.6341 54.334L56.8727 57.8518C56.1265 58.0649 54.4421 58.6193 53.6741 59.1309C52.7141 59.7705 53.9939 62.3289 53.9939 62.6487C53.9939 62.9685 57.5117 65.5269 60.3899 65.2071C62.6924 64.9512 62.8416 62.1157 62.6285 60.7299C61.7757 60.6233 60.0061 60.4101 59.7503 60.4101C59.4305 60.4101 57.5117 62.3289 56.8727 61.6893C56.2337 61.0497 58.7909 55.2934 59.1107 54.6538C59.3665 54.1421 59.8569 54.4406 60.0701 54.6538C60.3899 55.1868 61.0934 56.3807 61.3493 56.8924C61.6691 57.532 63.268 56.8924 64.867 56.8924C66.1462 56.8924 66.0396 58.5979 65.8264 59.4507C65.6132 61.3695 64.6112 65.5908 62.3087 67.1259C59.4305 69.0446 55.2737 67.4457 53.3549 66.8061C51.4362 66.1665 51.1164 62.6487 51.4362 59.7705C51.692 57.468 53.6747 55.1868 54.6341 54.334Z" stroke="#4A594A" stroke-width="0.8"/>
<path d="M107.721 14.5C110.622 14.5 115.819 14.8205 120.39 16.7793C122.609 17.7304 125.625 18.7622 128.234 19.6855C129.533 20.1451 130.733 20.5785 131.669 20.958C132.137 21.1476 132.547 21.3266 132.875 21.4922C133.188 21.6501 133.477 21.8205 133.658 22.002C133.743 22.0871 133.925 22.2296 134.213 22.4297C134.493 22.6242 134.848 22.8563 135.261 23.1172C136.086 23.6391 137.12 24.2654 138.202 24.9268C140.345 26.2363 142.706 27.6995 143.863 28.6914C144.982 29.6506 145.821 30.4845 146.591 31.1777C147.373 31.8819 148.144 32.4977 149.223 33.1143C150.39 33.7816 151.867 35.0148 153.176 36.125C153.839 36.6877 154.462 37.2215 155 37.6562C155.549 38.0995 155.969 38.4048 156.233 38.5371C156.452 38.6464 156.701 38.8364 156.957 39.0586C157.22 39.2872 157.517 39.5756 157.838 39.9062C158.479 40.5682 159.228 41.418 159.993 42.3438C161.52 44.1925 163.137 46.3731 164.114 48.002C166.016 51.172 169.927 57.0316 170.579 64.2031C170.897 67.7032 171.375 70.8075 171.774 73.3652C172.171 75.9007 172.5 77.9506 172.5 79.2793C172.5 80.5575 172.5 82.6494 172.379 84.7441C172.259 86.8194 172.018 88.9694 171.509 90.3281C170.547 92.893 167.018 101.556 164.121 106.707C161.239 111.831 156.727 118.931 151.542 123.468C146.392 127.974 139.636 132.479 133.19 135.38C130.004 136.814 127.573 137.948 124.859 138.799C122.136 139.652 119.138 140.217 114.793 140.539C110.397 140.865 102.898 139.729 96.1865 138.331C92.8195 137.63 89.6304 136.858 87.1006 136.16C85.8361 135.811 84.7323 135.48 83.8516 135.185C82.9816 134.893 82.2983 134.626 81.8945 134.401C79.0838 132.84 67.748 128.298 60.3096 118.272C56.623 113.304 54.7654 110.24 53.708 108.125C53.1782 107.065 52.8514 106.247 52.5967 105.555C52.3376 104.85 52.1697 104.324 51.9365 103.78C50.9857 101.562 48.4031 96.0737 47.1113 90.2607C45.8303 84.4963 45.5 82.2141 45.5 79.2793C45.5 76.4082 45.4972 70.5785 47.1221 65.3789C47.9123 62.8502 48.4666 60.0781 48.9873 57.4746C49.5041 54.8906 49.991 52.4491 50.6465 50.6465C51.9327 47.1094 53.8728 42.8955 56.1582 39.957C57.2929 38.4981 59.226 36.3516 60.9863 34.4844C61.8684 33.5487 62.7118 32.6788 63.3955 31.9951C64.069 31.3217 64.6113 30.804 64.8809 30.5947C67.304 28.657 71.5585 25.7683 75.8438 23.2051C80.1144 20.6507 84.4924 18.373 87.1328 17.7129C92.2739 16.4276 96.7764 15.7838 98.6846 15.4658C100.599 15.1467 104.795 14.5 107.721 14.5Z" stroke="#4A594A"/>
<path d="M58.4711 50.4965C57.9594 50.7524 57.6183 49.9636 57.5117 49.5372L61.0295 44.7402L62.3087 45.3798L61.3493 46.3392L64.2275 48.5778L66.466 46.0194L63.9077 43.7808L62.9483 44.7402L61.3493 43.7808L65.1868 38.6641L66.7858 39.9433L66.1462 41.862C67.8518 43.3544 71.3269 46.3392 71.5828 46.3392C71.9026 46.3392 72.862 44.7402 73.1818 44.7402C73.4376 44.7402 74.7808 45.593 75.4203 46.0194L71.263 51.4559L69.664 50.1768L70.6234 48.5778L67.7452 47.2986L65.8264 49.857L68.065 52.0955L69.3442 50.8163C69.664 50.4965 70.3036 51.4559 70.3036 52.0955C70.3036 52.6072 67.9584 55.2935 66.7858 56.5727C66.3594 56.4661 65.4427 56.125 65.1868 55.6133C64.867 54.9737 66.1462 54.3341 65.8264 54.0143C65.5066 53.6945 60.7097 49.5372 60.0701 49.5372C59.4305 49.5372 59.1107 50.1768 58.4711 50.4965Z" stroke="#4A594A" stroke-width="0.8"/>
<path d="M72.8623 30.6699C72.6065 30.6699 69.1314 34.0811 67.4258 35.7867L68.705 36.7461H70.9435C71.5831 36.7461 74.1415 40.9034 74.1415 41.2232C74.1415 41.4791 73.7151 42.609 73.5019 43.142L74.7811 44.1014L80.5375 39.3044C80.4309 39.0912 79.9618 38.6648 78.9385 38.6648C77.9151 38.6648 75.3141 35.2537 74.1415 33.5481C74.3547 33.1217 74.7811 32.2049 74.7811 31.9491C74.7811 31.6293 73.1821 30.6699 72.8623 30.6699Z" stroke="#4A594A" stroke-width="0.8"/>
<path d="M83.7362 121.811V119.572L89.8124 120.532L89.4926 122.45L88.5332 123.41V127.567L89.4926 128.207V130.126L82.457 128.846V126.928L83.7362 126.288L84.6956 122.131L83.7362 121.811Z" stroke="#4A594A" stroke-width="0.8"/>
<path d="M91.73 123.411L91.4102 120.533C98.7655 120.533 98.7655 117.654 98.7655 118.614C98.7655 119.381 100.045 121.492 100.684 122.451H96.5269L95.8873 123.091C96.9533 123.411 99.3411 124.498 100.364 126.289C101.644 128.527 97.8061 131.725 97.4863 132.365C97.2305 132.877 93.9685 132.791 92.3695 132.685L93.3289 131.406C93.6487 131.086 94.4802 130.318 95.2477 129.807C96.2071 129.167 95.8873 126.289 95.2477 125.649C94.736 125.138 92.4761 124.37 91.4102 124.05L91.73 123.411Z" stroke="#4A594A" stroke-width="0.8"/>
<circle cx="64.5516" cy="71.6043" r="1.51878" stroke="#4A594A" stroke-width="0.8"/>
<circle cx="50.4774" cy="69.6844" r="1.51878" stroke="#4A594A" stroke-width="0.8"/>
<circle cx="56.2362" cy="52.4159" r="0.879188" stroke="#4A594A" stroke-width="0.8"/>
<circle cx="65.8261" cy="86.953" r="0.879188" stroke="#4A594A" stroke-width="0.8"/>
<circle cx="150.251" cy="50.1752" r="1.19898" stroke="#4A594A" stroke-width="0.8"/>
<path d="M60.07 85.3549C59.8141 85.3549 55.4862 85.9945 53.3542 86.3143C53.2476 86.6341 53.0984 87.3377 53.3542 87.5936C53.674 87.9136 52.7146 88.553 52.3948 88.8728C52.075 89.1926 51.4354 88.553 51.1156 88.2332C50.7958 87.9134 50.1562 82.1571 50.1562 79.5987C50.1562 77.0403 51.1156 73.8422 55.5928 73.5224C60.07 73.2026 61.9887 76.7204 62.3085 77.6798C62.5644 78.4473 63.0547 84.3955 63.2679 87.2737C63.1613 87.3803 62.8202 87.5295 62.3085 87.2737C61.6689 86.9539 60.3898 85.3549 60.07 85.3549Z" stroke="#4A594A" stroke-width="0.8"/>
<path d="M128.828 118.615H131.706L141.62 123.092L139.062 113.178M139.062 113.178H137.463V115.097L134.904 116.056L133.625 115.097V113.178L129.788 114.138M139.062 113.178L141.62 112.219H144.818C145.564 113.924 147.44 116.888 148.975 115.097C150.51 113.306 152.813 110.3 153.772 109.021L152.813 108.062L151.534 108.701C149.615 107.315 145.777 104.416 145.777 103.904C145.777 103.392 145.777 102.625 145.777 102.305M134.904 110.94L138.422 108.062L145.777 109.021L147.057 108.062L144.178 105.823L141.62 107.102L140.341 105.823M147.057 102.305C147.376 103.051 148.272 104.544 149.295 104.544C150.318 104.544 151.854 104.544 152.493 104.544C152.706 105.183 153.389 106.463 154.412 106.463C155.691 106.463 157.29 106.463 157.29 105.823C157.29 105.311 158.782 101.133 159.529 99.1072V98.4676L157.29 99.7468C156.117 99.2138 153.516 98.0199 152.493 97.5082C151.47 96.9965 150.788 96.6554 150.574 96.5488M153.772 101.666C153.559 101.985 153.197 102.753 153.452 103.265C153.708 103.776 154.199 104.331 154.412 104.544H156.011C156.437 104.437 157.29 104.032 157.29 103.265C157.29 102.497 155.798 101.879 155.051 101.666H153.772ZM148.336 100.067V101.666L149.615 102.305H151.534L152.493 101.666V100.067L150.574 99.7468H149.295L148.336 100.067Z" stroke="#4A594A" stroke-width="0.8"/>
<path d="M161.446 90.7907L160.486 95.2678L155.689 90.7907L150.892 94.6282L149.613 93.6688L150.253 87.9125H151.532V88.5521L154.41 87.9125L152.172 85.0343M158.887 89.8313L157.608 88.5521L159.527 87.5927M153.131 80.877L156.329 85.0343L159.527 82.4759" stroke="#4A594A" stroke-width="0.8"/>
<path d="M157.292 54.0148L155.373 49.8574L153.774 50.8168C154.094 51.563 154.541 53.2473 153.774 54.0148C153.006 54.7823 148.764 56.2534 146.738 56.893L148.337 61.3701H149.616L155.373 58.1721" stroke="#4A594A" stroke-width="0.8"/>
<path d="M128.023 77.3766C127.235 77.1794 125.598 76.9033 125.361 77.3766C125.124 77.8499 125.263 79.5457 125.361 80.3344C125.558 80.8275 125.834 81.8726 125.361 82.1093" stroke="#4A594A" stroke-width="0.8"/>
<path d="M100.514 67.6134C99.5279 66.9232 97.2601 65.6019 96.0768 65.8386C94.5978 66.1344 93.1188 68.2047 94.0062 69.6838C94.8936 71.1628 95.4854 72.0502 97.2602 72.0502C99.0351 72.0502 98.7393 73.8251 99.9225 73.8251C100.869 73.8251 101.5 74.0223 101.697 74.1209L102.289 73.8251" stroke="#4A594A" stroke-width="0.8"/>
<path d="M128.027 72.3456C128.915 72.0498 129.211 71.1624 128.619 69.6833C128.146 68.5001 124.872 64.8518 123.295 63.1756V57.8511C123.295 57.6539 123.117 57.0228 122.407 56.0762C121.52 54.893 121.52 53.7098 121.224 53.414C120.928 53.1182 121.52 52.8224 121.52 51.6391C121.52 50.4559 121.224 48.9769 120.632 47.4979C120.238 46.1174 119.272 43.3566 118.562 43.3566C117.674 43.3566 119.449 42.1733 117.97 41.2859C116.787 40.576 114.913 39.4124 114.125 38.9193C110.575 37.7361 92.2341 33.299 82.4725 44.2438C74.6632 52.9997 81.5851 68.007 86.0222 74.4161V75.3037M128.027 72.3456C127.479 72.5284 126.818 72.8242 126.392 73.233M128.027 72.3456C128.126 71.9512 128.087 71.1624 127.14 71.1624C126.193 71.1624 125.76 71.754 125.661 72.0498M111.758 83.5862C114.125 83.5862 119.449 86.8401 121.224 86.8401C122.999 86.8401 126.548 89.2066 130.098 89.2066C133.648 89.2066 134.239 86.2485 134.535 85.6569C134.831 85.0653 132.76 84.4737 132.169 84.4737C131.577 84.4737 131.577 83.5862 131.577 82.9946C131.577 82.403 130.69 82.1072 130.69 81.8114C130.69 81.5156 130.986 79.7408 130.69 79.1491C130.453 78.6759 129.211 77.9659 128.619 77.6701C128.619 77.2757 128.56 76.2502 128.323 75.3037C128.027 74.1204 125.957 75.0079 125.957 74.1204C125.957 73.7815 126.129 73.4857 126.392 73.233M111.758 83.5862C109.392 83.5862 121.52 89.7982 121.52 90.6856C121.52 91.573 120.632 94.2353 120.632 93.9395C120.632 93.6437 119.745 95.1227 120.632 95.7143C121.52 96.3059 126.548 97.785 128.027 97.785C129.507 97.785 131.577 99.5598 131.577 100.447C131.577 101.335 133.056 104.293 132.169 105.476C131.281 106.659 127.732 111.392 127.14 111.688C126.548 111.984 126.844 115.238 124.774 115.238C122.703 115.238 118.562 114.35 116.195 114.35C113.829 114.35 112.054 114.35 110.279 114.35C108.504 114.35 98.7426 110.8 94.8972 108.73C91.0517 106.659 86.6146 102.814 83.6565 102.518C80.6984 102.222 75.0781 98.6724 75.0781 97.785C75.0781 96.8975 79.2194 93.6437 80.4026 93.3479C81.5859 93.052 81.5859 92.1646 82.1775 90.6856C82.7691 89.2066 84.8405 88.0233 85.4314 87.4317C86.0222 86.8401 87.2062 85.9527 86.9104 83.882C86.6146 81.8114 87.2062 79.7408 86.3188 79.445C85.4314 79.1491 84.8397 77.0785 84.5439 76.4869C84.2481 75.8953 84.2481 75.3037 84.8397 75.3037C85.313 75.3037 85.8252 75.3037 86.0222 75.3037M111.758 83.5862C104.855 80.8254 90.0445 75.3037 86.0222 75.3037M126.392 73.233C125.064 73.0358 122.407 72.4639 122.407 71.754C122.407 70.8666 122.407 70.275 123.295 70.275" stroke="#4A594A" stroke-width="0.8"/>
<path d="M115.898 66.4299C116.589 65.9369 118.087 64.7734 118.561 64.0634C119.152 63.176 120.04 62.2886 120.04 61.697C120.04 61.1054 119.448 63.176 119.744 63.7676C120.04 64.3592 120.336 64.3592 120.631 65.2466C120.927 66.134 120.04 66.7257 119.152 66.7257C118.442 66.7257 117.476 66.5285 117.082 66.4299" stroke="#4A594A" stroke-width="0.8"/>
<path d="M115.602 56.0767C116.292 55.6823 117.909 55.0118 118.855 55.4851C120.039 56.0767 120.908 56.7647 121.5 57.0605" stroke="#4A594A" stroke-width="0.8"/>
<path d="M91.6445 84.4746C93.7152 86.6439 99.0397 91.1598 103.773 91.8698C108.505 92.5797 115.408 93.546 118.267 93.9404C121.915 97.8845 129.508 105.773 130.691 105.773M95.7858 91.8698C98.9411 93.4474 106.08 96.6027 109.393 96.6027C112.706 96.6027 115.901 96.6027 117.084 96.6027M115.605 99.5607C114.52 99.5607 111.759 99.5607 109.393 99.5607C107.026 99.5607 101.505 97.5887 99.0397 96.6027C102.885 101.829 110.635 112.458 110.872 113.168" stroke="#4A594A" stroke-width="0.8"/>
</svg>
