<svg width="217" height="156" viewBox="0 0 217 156" fill="none" xmlns="http://www.w3.org/2000/svg">
<path d="M137.406 46.9479L144.465 39.5533M144.465 39.5533L148.031 55.2932L154.885 46.9479M144.465 39.5533L171.691 35.856L174.379 44.1362M154.885 46.9479L159.254 63.7539M154.885 46.9479L174.379 44.1362M159.254 63.7539L138.078 47.7908M159.254 63.7539L158.582 67.7874M159.254 63.7539L193.202 58.81M174.379 44.1362L189.841 41.9061L193.874 58.7121L193.202 58.81M137.406 47.2841L138.078 47.7908M138.078 47.7908L137.406 57.7038L158.582 67.7874M158.582 67.7874L163.802 77.0409L162.846 77.9968L163.288 81.2322L189.169 76.1904L193.202 58.81" stroke="#4A594A" stroke-linecap="round" stroke-linejoin="round"/>
<path opacity="0.25" d="M144.207 40.7192L137.994 46.9322L147.075 54.1009L144.207 40.7192Z" stroke="#4A594A"/>
<path d="M116.231 23.756L92.0301 19.0503L86.9883 32.8312L88.3328 33.1398M116.231 23.756L111.525 38.5453M116.231 23.756L120.936 32.4951L120.414 32.8312M111.525 38.5453L110.517 38.2092L109.318 36.8961L107.492 37.5369M111.525 38.5453L120.414 32.8312M111.525 38.5453L110.752 38.8078L116.567 50.6456L119.928 48.6289L120.414 32.8312M107.492 37.5369L88.3328 33.1398M107.492 37.5369L89.7232 45.0208L88.3328 42.2426V33.1398" stroke="#4A594A" stroke-linecap="round" stroke-linejoin="round"/>
<path d="M59.0901 51.6538L52.0316 60.3929L48.6704 67.7876L49.6788 68.7959M59.0901 51.6538L68.8376 60.7291L67.9553 63.0819M59.0901 51.6538L53.04 64.4264M53.04 64.4264L49.6788 68.7959M53.04 64.4264L60.0869 70.8127M49.6788 68.7959L51.3594 70.8127M51.3594 70.8127H60.0869M51.3594 70.8127L55.3928 75.1292V78.2073M60.0869 70.8127L62.6832 73.1655M62.6832 73.1655L63.7958 74.1739L67.9553 63.0819M62.6832 73.1655L62.7875 78.2073H55.3928M55.3928 78.2073H63.1236L68.1654 64.7625L67.9553 63.0819" stroke="#4A594A" stroke-linecap="round" stroke-linejoin="round"/>
<path d="M120.936 76.1902L113.878 85.2655L115.222 86.0363M120.936 76.1902L146.482 89.9712M120.936 76.1902L119.592 75.518L130.684 55.0146L158.246 67.4511M146.482 89.9712L139.087 99.7187M146.482 89.9712L147.826 94.0046M146.482 89.9712L158.246 67.4511M139.087 99.7187L115.222 86.0363M139.087 99.7187V104.424M115.222 86.0363V89.9712L139.087 104.424M139.087 104.424L148.834 97.7019M148.834 97.7019L147.826 94.0046M148.834 97.7019L162.952 104.424M147.826 94.0046L162.952 101.735M147.826 94.0046L156.565 81.232L162.952 84.4252M162.952 101.735L170.01 87.9544M162.952 101.735L175.388 90.9795M162.952 101.735V104.424M170.01 87.9544L175.388 90.9795M170.01 87.9544L162.952 84.4252M175.388 90.9795V95.013L162.952 104.424M158.246 67.4511L163.96 77.1986L162.952 78.207V84.4252" stroke="#4A594A" stroke-linecap="round" stroke-linejoin="round"/>
<path d="M29.8478 80.5602L22.4531 90.3077L24.806 90.47M29.8478 80.5602L41.9481 91.6522M29.8478 80.5602L45.3093 64.0903L55.3929 75.1823M41.9481 91.6522L55.3929 75.1823M41.9481 91.6522L24.806 90.47M41.9481 91.6522V96.694M55.3929 75.1823V79.5519L41.9481 96.694M41.9481 96.694L24.806 95.0134V90.47" stroke="#4A594A" stroke-linecap="round" stroke-linejoin="round"/>
<path d="M108.5 13.5C136.17 13.5 161.196 20.8154 179.291 32.6162C197.39 44.42 208.5 60.669 208.5 78.5439C208.5 96.4187 197.39 112.667 179.291 124.471C161.196 136.271 136.17 143.587 108.5 143.587C80.8305 143.587 55.8035 136.271 37.709 124.471C19.6101 112.667 8.50019 96.4187 8.5 78.5439C8.5 60.669 19.6099 44.42 37.709 32.6162C55.8035 20.8154 80.8305 13.5 108.5 13.5Z" stroke="#4A594A"/>
<path d="M101.105 120.895L101.271 120.76M125.978 100.728L133.037 112.828M125.978 100.728L101.271 120.76M125.978 100.728L119.592 104.425L94.3828 124.592M133.037 112.828L108.164 133.331M133.037 112.828V116.525L108.164 137.365M108.164 133.331L101.271 120.76M108.164 133.331L94.3828 124.592M108.164 133.331V137.365M101.271 120.76L94.3828 124.592M94.3828 124.592V129.634L108.164 137.365" stroke="#4A594A" stroke-linecap="round" stroke-linejoin="round"/>
<path d="M84.6353 47.2845L75.5601 59.0487L77.5768 59.9083M84.6353 47.2845L96.0634 67.7878M84.6353 47.2845L109.508 36.8647L118.92 55.6875M96.0634 67.7878V89.9718M96.0634 67.7878L116.903 56.7552M96.0634 67.7878L118.92 55.6875M96.0634 67.7878L77.5768 59.9083M118.92 55.6875L116.903 56.7552M96.0634 89.9718L116.903 76.8631V56.7552M96.0634 89.9718L78.9213 82.241L77.5768 59.9083" stroke="#4A594A" stroke-linecap="round" stroke-linejoin="round"/>
<path d="M78.249 66.7795L96.0634 74.8464L117.239 62.7461" stroke="#4A594A" stroke-linecap="round" stroke-linejoin="round"/>
<path d="M71.8626 42.2422L66.8208 48.6285L67.8292 48.9166M71.8626 42.2422L83.9629 35.856L90.0131 44.9312L84.9443 47.41L82.9546 49.6369L78.585 51.9897M71.8626 42.2422L78.585 51.9897M78.585 51.9897L67.8292 48.9166M78.585 51.9897V55.3509L67.8292 52.662V48.9166" stroke="#4A594A" stroke-linecap="round" stroke-linejoin="round"/>
</svg>
